<svg xmlns="http://www.w3.org/2000/svg" version="1.1" x="0px" y="0px" width="725px" height="439px" viewBox="0 0 725 439" enable-background="new 0 0 725 439" xml:space="preserve">
  <g id="browser">
    <g id="XMLID_1_">
      <path fill="#F4F4F4" d="M710.402 46.437v373.939c0 3.541-2.863 6.392-6.392 6.392H17.863c-3.541 0-6.392-2.851-6.392-6.392V46.437H710.402z"/>
    </g>
    <path fill="#E2E2E1" d="M710.414 46.833V19.9c0-3.53-2.862-6.392-6.393-6.392H17.865c-3.529 0-6.391 2.862-6.391 6.392v26.933H710.414z"/>
    <circle fill="#70B34A" cx="643.544" cy="30.17" r="6.112"/>
    <circle fill="#DDAA54" cx="664.236" cy="30.17" r="6.112"/>
    <circle fill="#D5655D" cx="685.026" cy="30.17" r="6.112"/>
    <rect x="11" y="47" fill="#FFFFFF" width="699" height="50"/>
    <rect x="11" y="96" fill="#E0E0E0" width="699" height="1"/>
    <circle fill="#DFE0E1" cx="111.197" cy="72" r="12.241"/>
    <rect x="552" y="70" fill="#DFE0E1" width="21" height="4"/>
    <rect x="583" y="70" fill="#DFE0E1" width="15" height="4"/>
    <rect x="608" y="70" fill="#DFE0E1" width="15" height="4"/>
  </g>
  <g id="btn_x5F_open">
    <rect x="269" y="216" fill="#A33326" width="182" height="42"/>
    <rect x="269" y="215" fill="#E84C3D" width="182" height="41"/>
    <text transform="matrix(1 0 0 1 306.127 242.417)" fill="#FFFFFF" font-family="'Lato-Black'" font-size="16.581">
      OPEN MODAL
    </text>
  </g>
  <g id="cursor">
    <path fill-rule="evenodd" clip-rule="evenodd" d="M456.598 272.951c-0.729-1.163-1.421-2.29-2.141-3.399 -0.142-0.218-0.363-0.424-0.601-0.536 -4.72-2.22-9.455-4.413-14.17-6.646 -1.126-0.532-1.924-1.444-2.403-2.576 -0.473-1.113 0.056-2.324 1.227-3.259 1.414-1.13 2.982-1.128 4.608-0.868 0.126 0.02 0.251 0.043 0.378 0.063 0.007 0.001 0.019-0.016 0.068-0.059 -0.072-0.117-0.149-0.24-0.228-0.363 -2.109-3.368-4.177-6.762-6.341-10.092 -1.277-1.968-0.585-3.762 0.873-4.897 0.892-0.694 1.857-1.226 3.01-1.268 1.101-0.04 1.957 0.402 2.533 1.312 0.888 1.4 1.762 2.811 2.644 4.217 0.086 0.139 0.173 0.277 0.289 0.461 0.729-0.457 1.428-0.883 2.112-1.326 1.236-0.799 2.445-0.709 3.621-0.002 0.245 0.146 0.398 0.154 0.638-0.004 0.587-0.393 1.199-0.746 1.791-1.133 1.031-0.676 2.054-0.648 3.063-0.063 0.229 0.133 0.391 0.136 0.613-0.013 0.516-0.342 1.061-0.642 1.571-0.994 1.51-1.048 3.093-0.656 4.179 0.601 0.191 0.22 0.358 0.464 0.514 0.71 1.793 2.857 3.586 5.717 5.368 8.58 0.128 0.207 0.231 0.447 0.276 0.688 0.667 3.571 1.318 7.146 1.985 10.718 0.058 0.302 0.006 0.466-0.28 0.646 -4.943 3.081-9.88 6.176-14.816 9.267C456.872 272.78 456.763 272.849 456.598 272.951zM447.295 261.628c-0.585-0.935-1.137-1.821-1.696-2.703 -0.079-0.124-0.174-0.276-0.3-0.326 -1.306-0.514-2.645-0.898-4.086-0.881 -0.699 0.01-1.216 0.369-1.689 0.839 -0.198 0.197-0.217 0.396-0.064 0.604 0.396 0.541 0.817 1.047 1.456 1.344 4.845 2.258 9.686 4.519 14.52 6.791 0.238 0.111 0.459 0.317 0.606 0.535 0.45 0.665 0.862 1.357 1.302 2.059 0.146-0.082 0.259-0.139 0.365-0.205 3.887-2.432 7.771-4.869 11.662-7.291 0.262-0.164 0.295-0.316 0.245-0.585 -0.559-2.993-1.104-5.991-1.663-8.985 -0.034-0.188-0.108-0.377-0.208-0.537 -1.674-2.686-3.351-5.369-5.04-8.044 -0.22-0.349-0.498-0.671-0.799-0.955 -0.127-0.12-0.439-0.216-0.57-0.144 -0.685 0.379-1.338 0.815-2.047 1.259 0.575 0.918 1.118 1.786 1.659 2.649 -0.65 0.407-1.255 0.785-1.894 1.186 -0.098-0.153-0.177-0.281-0.256-0.408 -0.541-0.863-1.066-1.734-1.628-2.582 -0.205-0.308-0.475-0.581-0.761-0.818 -0.126-0.106-0.415-0.177-0.541-0.105 -0.711 0.402-1.394 0.852-2.124 1.309 0.533 0.852 1.041 1.662 1.56 2.491 -0.641 0.401-1.244 0.778-1.879 1.177 -0.59-0.943-1.153-1.872-1.749-2.779 -0.219-0.333-0.488-0.646-0.786-0.911 -0.277-0.247-0.665-0.392-1.027-0.185 -0.785 0.45-1.539 0.951-2.367 1.47 0.934 1.488 1.844 2.942 2.754 4.397 -0.657 0.41-1.252 0.783-1.883 1.179 -0.101-0.161-0.188-0.3-0.275-0.439 -2.145-3.427-4.289-6.852-6.435-10.277 -0.323-0.515-0.646-0.661-1.213-0.412 -0.48 0.21-0.958 0.48-1.357 0.815 -0.677 0.566-0.707 0.979-0.26 1.693 3.364 5.375 6.731 10.751 10.096 16.125 0.094 0.148 0.187 0.297 0.284 0.453C448.547 260.843 447.941 261.222 447.295 261.628z"/>
    <path fill-rule="evenodd" clip-rule="evenodd" fill="#FFFFFF" d="M447.295 261.628c0.646-0.406 1.252-0.785 1.911-1.199 -0.098-0.156-0.19-0.305-0.284-0.453 -3.364-5.374-6.731-10.75-10.096-16.125 -0.447-0.714-0.417-1.127 0.26-1.693 0.399-0.335 0.877-0.605 1.357-0.815 0.567-0.249 0.89-0.103 1.213 0.412 2.146 3.426 4.29 6.851 6.435 10.277 0.088 0.14 0.175 0.278 0.275 0.439 0.631-0.396 1.226-0.769 1.883-1.179 -0.91-1.455-1.82-2.909-2.754-4.397 0.828-0.519 1.582-1.02 2.367-1.47 0.362-0.207 0.75-0.063 1.027 0.185 0.298 0.266 0.567 0.578 0.786 0.911 0.596 0.907 1.159 1.836 1.749 2.779 0.635-0.398 1.238-0.775 1.879-1.177 -0.519-0.829-1.026-1.64-1.56-2.491 0.73-0.457 1.413-0.906 2.124-1.309 0.126-0.071 0.415-0.001 0.541 0.105 0.286 0.237 0.556 0.511 0.761 0.818 0.562 0.848 1.087 1.719 1.628 2.582 0.079 0.127 0.158 0.255 0.256 0.408 0.639-0.4 1.243-0.778 1.894-1.186 -0.541-0.863-1.084-1.731-1.659-2.649 0.709-0.443 1.362-0.88 2.047-1.259 0.131-0.072 0.443 0.023 0.57 0.144 0.301 0.284 0.579 0.606 0.799 0.955 1.689 2.675 3.366 5.358 5.04 8.044 0.1 0.16 0.174 0.35 0.208 0.537 0.559 2.994 1.104 5.992 1.663 8.985 0.05 0.269 0.017 0.421-0.245 0.585 -3.892 2.422-7.775 4.859-11.662 7.291 -0.106 0.066-0.22 0.123-0.365 0.205 -0.439-0.701-0.852-1.394-1.302-2.059 -0.147-0.218-0.368-0.424-0.606-0.535 -4.834-2.272-9.675-4.533-14.52-6.791 -0.639-0.297-1.061-0.803-1.456-1.344 -0.152-0.208-0.134-0.407 0.064-0.604 0.474-0.47 0.99-0.829 1.689-0.839 1.441-0.018 2.78 0.367 4.086 0.881 0.126 0.05 0.221 0.202 0.3 0.326C446.158 259.807 446.71 260.693 447.295 261.628z"/>
  </g>
  <g id="modal">
    <g id="XMLID_3_">
      <path fill="#39BEB9" d="M710.413 46.437v373.939c0 3.541-2.863 6.392-6.392 6.392H17.874c-3.541 0-6.392-2.851-6.392-6.392V46.437H710.413z"/>
    </g>
  </g>
  <g id="btn_x5F_close">
    <circle fill="none" stroke="#FFFFFF" stroke-width="1.1885" stroke-miterlimit="10" cx="360" cy="95.89" r="15.786"/>
    <line fill="none" stroke="#FFFFFF" stroke-width="1.1885" stroke-miterlimit="10" x1="364.782" y1="101.117" x2="355.403" y2="91.741"/>
    <line fill="none" stroke="#FFFFFF" stroke-width="1.1885" stroke-miterlimit="10" x1="364.782" y1="91.294" x2="355.403" y2="100.672"/>
  </g>
  <g id="el_x5F_01">
    <path fill="#FFFFFF" d="M255.086 249.707c0 1.695-1.375 3.066-3.068 3.066H106.637c-1.695 0-3.07-1.371-3.07-3.066v-82.201c0-1.695 1.375-3.066 3.07-3.066h145.381c1.693 0 3.068 1.371 3.068 3.066V249.707z"/>
    <path fill="#39BEB9" d="M165.986 194.896c2.088 0 3.744 1.718 3.744 3.742 0 2.023-1.719 3.741-3.744 3.741 -2.023 0-3.74-1.718-3.74-3.741C162.125 196.614 163.84 194.896 165.986 194.896z"/>
    <path fill="#39BEB9" d="M159.607 220.658l11.043-15.15c0.246-0.429 0.797-0.552 1.287-0.246l4.725 2.454 7.727-10.43c0.186-0.243 0.555-0.429 0.922-0.429s0.613 0.186 0.799 0.552l13.066 23.372c0.184 0.369 0.119 0.676 0 1.043 -0.186 0.369-0.553 0.492-0.922 0.492h-37.91c-0.43 0-0.736-0.184-0.92-0.553C159.301 221.334 159.361 220.904 159.607 220.658z"/>
    <rect x="104.975" y="261.49" fill="#FFFFFF" width="148.449" height="3.27"/>
    <rect x="139.1" y="268.236" fill="#FFFFFF" width="71.588" height="3.273"/>
    <rect x="104.975" y="268.236" fill="#FFFFFF" width="29.674" height="3.273"/>
    <rect x="214.584" y="268.236" fill="#FFFFFF" width="25.039" height="3.273"/>
    <rect x="104.975" y="274.984" fill="#FFFFFF" width="72.551" height="3.273"/>
    <rect x="182.061" y="274.984" fill="#FFFFFF" width="66.049" height="3.273"/>
    <rect x="104.975" y="281.732" fill="#FFFFFF" width="111.643" height="3.273"/>
    <rect x="221.525" y="281.732" fill="#FFFFFF" width="31.898" height="3.273"/>
    <rect x="104.975" y="288.48" fill="#FFFFFF" width="148.449" height="3.273"/>
    <rect x="104.975" y="295.229" fill="#FFFFFF" width="69.521" height="3.27"/>
    <rect x="178.176" y="295.229" fill="#FFFFFF" width="63.492" height="3.27"/>
    <rect x="104.975" y="301.977" fill="#FFFFFF" width="148.449" height="3.271"/>
    <rect x="104.975" y="307.805" fill="#FFFFFF" width="148.449" height="3.27"/>
    <rect x="139.125" y="314.553" fill="#FFFFFF" width="71.645" height="3.27"/>
    <rect x="104.975" y="314.553" fill="#FFFFFF" width="29.697" height="3.27"/>
    <rect x="214.666" y="314.553" fill="#FFFFFF" width="25.059" height="3.27"/>
    <rect x="104.975" y="321.297" fill="#FFFFFF" width="68.303" height="3.273"/>
    <rect x="177.547" y="321.297" fill="#FFFFFF" width="62.178" height="3.273"/>
    <rect x="104.975" y="328.045" fill="#FFFFFF" width="111.643" height="3.273"/>
    <rect x="221.525" y="328.045" fill="#FFFFFF" width="31.898" height="3.273"/>
    <rect x="104.975" y="334.795" fill="#FFFFFF" width="134.75" height="3.271"/>
    <rect x="104.975" y="341.543" fill="#FFFFFF" width="69.521" height="3.27"/>
    <rect x="171.42" y="341.543" fill="#FFFFFF" width="82.004" height="3.27"/>
    <rect x="104.975" y="348.291" fill="#FFFFFF" width="134.75" height="3.27"/>
  </g>
  <g id="el_x5F_02">
    <path fill="#FFFFFF" d="M432.563 249.707c0 1.695-1.375 3.066-3.07 3.066H284.111c-1.695 0-3.068-1.371-3.068-3.066v-82.201c0-1.695 1.373-3.066 3.068-3.066h145.381c1.695 0 3.07 1.371 3.07 3.066V249.707z"/>
    <path fill="#39BEB9" d="M343.463 194.896c2.086 0 3.742 1.718 3.742 3.742 0 2.023-1.717 3.741-3.742 3.741s-3.742-1.718-3.742-3.741C339.6 196.614 341.316 194.896 343.463 194.896z"/>
    <path fill="#39BEB9" d="M337.084 220.658l11.041-15.15c0.246-0.429 0.797-0.552 1.289-0.246l4.723 2.454 7.729-10.43c0.186-0.243 0.555-0.429 0.922-0.429 0.365 0 0.611 0.186 0.797 0.552l13.066 23.372c0.184 0.369 0.121 0.676 0 1.043 -0.186 0.369-0.553 0.492-0.922 0.492H337.82c-0.43 0-0.736-0.184-0.922-0.553C336.777 221.334 336.838 220.904 337.084 220.658z"/>
    <rect x="282.449" y="261.49" fill="#FFFFFF" width="148.451" height="3.27"/>
    <rect x="316.574" y="268.236" fill="#FFFFFF" width="71.59" height="3.273"/>
    <rect x="282.449" y="268.236" fill="#FFFFFF" width="29.674" height="3.273"/>
    <rect x="392.059" y="268.236" fill="#FFFFFF" width="25.039" height="3.273"/>
    <rect x="282.449" y="274.984" fill="#FFFFFF" width="72.551" height="3.273"/>
    <rect x="359.537" y="274.984" fill="#FFFFFF" width="66.047" height="3.273"/>
    <rect x="282.449" y="281.732" fill="#FFFFFF" width="111.643" height="3.273"/>
    <rect x="399.002" y="281.732" fill="#FFFFFF" width="31.898" height="3.273"/>
    <rect x="282.449" y="288.48" fill="#FFFFFF" width="148.451" height="3.273"/>
    <rect x="282.449" y="295.229" fill="#FFFFFF" width="69.523" height="3.27"/>
    <rect x="355.652" y="295.229" fill="#FFFFFF" width="63.49" height="3.27"/>
    <rect x="282.449" y="301.977" fill="#FFFFFF" width="148.451" height="3.271"/>
    <rect x="282.449" y="307.805" fill="#FFFFFF" width="148.451" height="3.27"/>
    <rect x="316.602" y="314.553" fill="#FFFFFF" width="71.645" height="3.27"/>
    <rect x="282.449" y="314.553" fill="#FFFFFF" width="29.697" height="3.27"/>
    <rect x="392.143" y="314.553" fill="#FFFFFF" width="25.057" height="3.27"/>
    <rect x="282.449" y="321.297" fill="#FFFFFF" width="68.305" height="3.273"/>
    <rect x="355.021" y="321.297" fill="#FFFFFF" width="62.178" height="3.273"/>
    <rect x="282.449" y="328.045" fill="#FFFFFF" width="111.643" height="3.273"/>
    <rect x="399.002" y="328.045" fill="#FFFFFF" width="31.898" height="3.273"/>
    <rect x="282.449" y="334.795" fill="#FFFFFF" width="134.75" height="3.271"/>
    <rect x="282.449" y="341.543" fill="#FFFFFF" width="69.523" height="3.27"/>
    <rect x="348.896" y="341.543" fill="#FFFFFF" width="82.004" height="3.27"/>
    <rect x="282.449" y="348.291" fill="#FFFFFF" width="134.75" height="3.27"/>
  </g>
  <g id="el_x5F_03">
    <path fill="#FFFFFF" d="M606.869 249.707c0 1.695-1.375 3.066-3.068 3.066H458.418c-1.693 0-3.068-1.371-3.068-3.066v-82.201c0-1.695 1.375-3.066 3.068-3.066h145.383c1.693 0 3.068 1.371 3.068 3.066V249.707z"/>
    <path fill="#39BEB9" d="M517.77 194.896c2.086 0 3.742 1.718 3.742 3.742 0 2.023-1.717 3.741-3.742 3.741 -2.023 0-3.74-1.718-3.74-3.741C513.906 196.614 515.623 194.896 517.77 194.896z"/>
    <path fill="#39BEB9" d="M511.391 220.658l11.043-15.15c0.246-0.429 0.797-0.552 1.287-0.246l4.725 2.454 7.727-10.43c0.186-0.243 0.555-0.429 0.922-0.429s0.613 0.186 0.799 0.552l13.066 23.372c0.182 0.369 0.119 0.676 0 1.043 -0.188 0.369-0.553 0.492-0.922 0.492h-37.91c-0.43 0-0.736-0.184-0.92-0.553C511.084 221.334 511.145 220.904 511.391 220.658z"/>
    <rect x="456.756" y="261.49" fill="#FFFFFF" width="148.451" height="3.27"/>
    <rect x="490.883" y="268.236" fill="#FFFFFF" width="71.588" height="3.273"/>
    <rect x="456.756" y="268.236" fill="#FFFFFF" width="29.676" height="3.273"/>
    <rect x="566.365" y="268.236" fill="#FFFFFF" width="25.039" height="3.273"/>
    <rect x="456.756" y="274.984" fill="#FFFFFF" width="72.553" height="3.273"/>
    <rect x="533.844" y="274.984" fill="#FFFFFF" width="66.047" height="3.273"/>
    <rect x="456.756" y="281.732" fill="#FFFFFF" width="111.645" height="3.273"/>
    <rect x="573.309" y="281.732" fill="#FFFFFF" width="31.898" height="3.273"/>
    <rect x="456.756" y="288.48" fill="#FFFFFF" width="148.451" height="3.273"/>
    <rect x="456.756" y="295.229" fill="#FFFFFF" width="69.523" height="3.27"/>
    <rect x="529.959" y="295.229" fill="#FFFFFF" width="63.49" height="3.27"/>
    <rect x="456.756" y="301.977" fill="#FFFFFF" width="148.451" height="3.271"/>
    <rect x="456.756" y="307.805" fill="#FFFFFF" width="148.451" height="3.27"/>
    <rect x="490.908" y="314.553" fill="#FFFFFF" width="71.645" height="3.27"/>
    <rect x="456.756" y="314.553" fill="#FFFFFF" width="29.699" height="3.27"/>
    <rect x="566.449" y="314.553" fill="#FFFFFF" width="25.059" height="3.27"/>
    <rect x="456.756" y="321.297" fill="#FFFFFF" width="68.305" height="3.273"/>
    <rect x="529.328" y="321.297" fill="#FFFFFF" width="62.18" height="3.273"/>
    <rect x="456.756" y="328.045" fill="#FFFFFF" width="111.645" height="3.273"/>
    <rect x="573.309" y="328.045" fill="#FFFFFF" width="31.898" height="3.273"/>
    <rect x="456.756" y="334.795" fill="#FFFFFF" width="134.752" height="3.271"/>
    <rect x="456.756" y="341.543" fill="#FFFFFF" width="69.523" height="3.27"/>
    <rect x="523.203" y="341.543" fill="#FFFFFF" width="82.004" height="3.27"/>
    <rect x="456.756" y="348.291" fill="#FFFFFF" width="134.752" height="3.27"/>
  </g>
</svg>
