<?xml version="1.0" encoding="utf-8"?>
<!-- Generator: Adobe Illustrator 16.0.0, SVG Export Plug-In . SVG Version: 6.00 Build 0)  -->
<!DOCTYPE svg PUBLIC "-//W3C//DTD SVG 1.1//EN" "http://www.w3.org/Graphics/SVG/1.1/DTD/svg11.dtd">
<svg version="1.1" id="Your_Icon" xmlns="http://www.w3.org/2000/svg" xmlns:xlink="http://www.w3.org/1999/xlink" x="0px" y="0px"
	 width="100px" height="100.001px" viewBox="90 90 100 100.001" enable-background="new 90 90 100 100.001" xml:space="preserve">
<g id="google-plus-icon">
	<path fill="#FFFFFF" stroke="#FFFFFF" stroke-width="2" stroke-miterlimit="10" d="M161.5,130.261h-4.64v4.641h-2.321v-4.641h-4.64
		v-2.32h4.64v-4.64h2.321v4.64h4.64V130.261z M148.382,149.451c0,3.479-3.176,7.713-11.166,7.713
		c-5.843,0-10.716-2.521-10.716-6.759c0-3.272,2.071-7.52,11.75-7.52c-1.437-1.171-1.789-2.809-0.911-4.583
		c-5.668,0-8.571-3.332-8.571-7.563c0-4.139,3.08-7.902,9.358-7.902c1.584,0,10.058,0,10.058,0l-2.247,2.358h-2.641
		c1.862,1.067,2.854,3.266,2.854,5.688c0,2.224-1.225,4.024-2.973,5.376c-3.101,2.397-2.307,3.736,0.943,6.105
		C147.323,144.764,148.382,146.616,148.382,149.451z M142.109,131.034c-0.469-3.56-2.788-6.48-5.497-6.562
		c-2.711-0.081-4.529,2.644-4.061,6.204c0.468,3.56,3.044,6.047,5.755,6.129C141.018,136.886,142.576,134.595,142.109,131.034z
		 M144.903,149.809c0-2.928-2.671-5.718-7.152-5.718c-4.039-0.045-7.461,2.551-7.461,5.563c0,3.071,2.917,5.628,6.956,5.628
		C142.408,155.281,144.903,152.88,144.903,149.809z"/>
</g>
</svg>
