<?xml version="1.0" encoding="utf-8"?>
<!-- Generator: Adobe Illustrator 16.0.0, SVG Export Plug-In . SVG Version: 6.00 Build 0)  -->
<!DOCTYPE svg PUBLIC "-//W3C//DTD SVG 1.1//EN" "http://www.w3.org/Graphics/SVG/1.1/DTD/svg11.dtd">
<svg version="1.1" id="Your_Icon" xmlns="http://www.w3.org/2000/svg" xmlns:xlink="http://www.w3.org/1999/xlink" x="0px" y="0px"
	 width="100px" height="100px" viewBox="0 0 100 100" enable-background="new 0 0 100 100" xml:space="preserve">
<path id="twitter-icon" fill="#FFFFFF" stroke="#FFFFFF" stroke-width="2" stroke-miterlimit="10" d="M68.5,38.526
	c-1.361,0.604-2.824,1.012-4.359,1.195c1.566-0.939,2.771-2.427,3.338-4.2c-1.467,0.87-3.092,1.501-4.82,1.842
	c-1.385-1.475-3.357-2.397-5.541-2.397c-4.899,0-8.501,4.573-7.395,9.321c-6.309-0.316-11.902-3.339-15.646-7.931
	c-1.989,3.411-1.031,7.875,2.349,10.134c-1.244-0.039-2.415-0.38-3.438-0.949c-0.083,3.517,2.437,6.805,6.088,7.54
	c-1.069,0.289-2.239,0.356-3.428,0.129c0.966,3.017,3.769,5.211,7.09,5.271c-3.191,2.502-7.21,3.619-11.238,3.146
	c3.359,2.154,7.349,3.41,11.636,3.41c14.094,0,22.057-11.904,21.576-22.58C66.195,41.385,67.482,40.048,68.5,38.526z"/>
</svg>
