<?xml version="1.0" encoding="utf-8"?>
<!-- Generator: Adobe Illustrator 16.0.0, SVG Export Plug-In . SVG Version: 6.00 Build 0)  -->
<!DOCTYPE svg PUBLIC "-//W3C//DTD SVG 1.1//EN" "http://www.w3.org/Graphics/SVG/1.1/DTD/svg11.dtd">
<svg version="1.1" id="Layer_1" xmlns="http://www.w3.org/2000/svg" xmlns:xlink="http://www.w3.org/1999/xlink" x="0px" y="0px"
	 width="78.5px" height="127.667px" viewBox="0 0 78.5 127.667" enable-background="new 0 0 78.5 127.667" xml:space="preserve">
<g>
	<g>
		<path fill="#BCBCBC" d="M24.557,5.098c-0.061,0.097-0.125,0.169-0.191,0.218s-0.15,0.072-0.256,0.072
			c-0.094,0-0.193-0.029-0.299-0.087c-0.107-0.059-0.229-0.124-0.363-0.196c-0.135-0.073-0.289-0.138-0.463-0.197
			c-0.174-0.058-0.371-0.087-0.592-0.087c-0.383,0-0.668,0.082-0.855,0.245c-0.188,0.164-0.281,0.384-0.281,0.662
			c0,0.177,0.057,0.324,0.17,0.441c0.113,0.117,0.26,0.218,0.443,0.302c0.184,0.085,0.393,0.163,0.629,0.233
			s0.477,0.149,0.723,0.235c0.244,0.087,0.486,0.188,0.723,0.306c0.234,0.117,0.443,0.266,0.627,0.447
			c0.184,0.181,0.332,0.402,0.445,0.662c0.113,0.26,0.17,0.573,0.17,0.94c0,0.407-0.07,0.788-0.213,1.143
			c-0.141,0.354-0.346,0.664-0.613,0.928s-0.598,0.471-0.992,0.623c-0.391,0.151-0.838,0.227-1.338,0.227
			c-0.273,0-0.553-0.028-0.836-0.084c-0.285-0.057-0.561-0.136-0.826-0.239c-0.266-0.103-0.516-0.225-0.75-0.366
			c-0.232-0.141-0.438-0.298-0.609-0.472l0.604-0.955c0.049-0.069,0.113-0.126,0.191-0.172s0.164-0.07,0.256-0.07
			c0.121,0,0.242,0.039,0.365,0.115c0.125,0.076,0.262,0.161,0.418,0.254c0.156,0.092,0.334,0.177,0.535,0.253
			c0.201,0.077,0.439,0.115,0.713,0.115c0.371,0,0.658-0.082,0.865-0.245c0.205-0.163,0.309-0.422,0.309-0.776
			c0-0.206-0.057-0.373-0.17-0.502c-0.113-0.129-0.262-0.235-0.445-0.32c-0.182-0.084-0.391-0.159-0.625-0.224
			s-0.473-0.136-0.719-0.215s-0.486-0.175-0.719-0.29c-0.234-0.115-0.443-0.266-0.627-0.454c-0.184-0.187-0.332-0.421-0.443-0.701
			c-0.113-0.28-0.17-0.625-0.17-1.037c0-0.331,0.066-0.653,0.199-0.967c0.133-0.314,0.33-0.594,0.586-0.84
			c0.26-0.246,0.576-0.442,0.949-0.589c0.375-0.147,0.805-0.221,1.289-0.221c0.27,0,0.531,0.021,0.787,0.063s0.5,0.105,0.729,0.188
			c0.23,0.083,0.445,0.181,0.645,0.296c0.199,0.115,0.377,0.244,0.535,0.39L24.557,5.098z"/>
		<path fill="#BCBCBC" d="M34.088,12.115h-1.584c-0.178,0-0.32-0.042-0.43-0.124c-0.107-0.083-0.189-0.188-0.248-0.317l-0.52-1.535
			h-3.348l-0.52,1.535c-0.045,0.113-0.125,0.214-0.24,0.305c-0.113,0.09-0.256,0.136-0.426,0.136h-1.596l3.41-8.807h2.09
			L34.088,12.115z M28.43,8.749h2.406l-0.811-2.412c-0.061-0.153-0.125-0.333-0.193-0.541c-0.068-0.207-0.137-0.432-0.205-0.674
			c-0.064,0.246-0.129,0.474-0.195,0.683s-0.131,0.391-0.191,0.544L28.43,8.749z"/>
		<path fill="#BCBCBC" d="M40.453,3.309V4.88h-3.615v2.23h3.01v1.578h-3.01v3.427h-2.055V3.309H40.453z"/>
		<path fill="#BCBCBC" d="M48.795,12.115h-1.584c-0.178,0-0.32-0.042-0.43-0.124s-0.191-0.188-0.248-0.317l-0.52-1.535h-3.35
			l-0.518,1.535c-0.045,0.113-0.125,0.214-0.24,0.305c-0.115,0.09-0.256,0.136-0.426,0.136h-1.596l3.41-8.807h2.09L48.795,12.115z
			 M43.137,8.749h2.406l-0.811-2.412c-0.061-0.153-0.125-0.333-0.193-0.541c-0.068-0.207-0.137-0.432-0.205-0.674
			c-0.064,0.246-0.131,0.474-0.197,0.683s-0.131,0.391-0.189,0.544L43.137,8.749z"/>
		<path fill="#BCBCBC" d="M51.533,8.857v3.258h-2.045V3.309h2.865c0.637,0,1.182,0.065,1.631,0.196s0.814,0.313,1.1,0.547
			c0.283,0.234,0.49,0.51,0.619,0.829c0.129,0.318,0.193,0.665,0.193,1.04c0,0.286-0.037,0.556-0.115,0.81
			c-0.076,0.253-0.189,0.489-0.342,0.704c-0.15,0.216-0.336,0.408-0.555,0.577c-0.221,0.169-0.473,0.308-0.76,0.417
			c0.137,0.069,0.266,0.154,0.381,0.257c0.117,0.103,0.221,0.225,0.314,0.366l1.873,3.064h-1.848c-0.344,0-0.59-0.128-0.738-0.387
			l-1.463-2.557c-0.068-0.109-0.145-0.188-0.23-0.239c-0.084-0.05-0.205-0.075-0.361-0.075H51.533z M51.533,7.449h0.82
			c0.279,0,0.516-0.035,0.711-0.106c0.195-0.07,0.355-0.168,0.48-0.293c0.125-0.125,0.215-0.271,0.271-0.438
			c0.057-0.167,0.086-0.348,0.086-0.541c0-0.387-0.127-0.689-0.379-0.907c-0.25-0.218-0.641-0.327-1.17-0.327h-0.82V7.449z"/>
		<path fill="#BCBCBC" d="M59.492,12.115h-2.055V3.309h2.055V12.115z"/>
	</g>
</g>
<g>
	<path fill="none" stroke="#C6C6C6" stroke-width="2" stroke-miterlimit="10" d="M63.563,66.26
		C70.308,73,73.677,81.105,73.677,90.573c0,9.466-3.369,17.574-10.113,24.314C56.823,121.631,48.718,125,39.249,125
		c-9.465,0-17.572-3.369-24.313-10.112c-6.74-6.74-10.113-14.849-10.113-24.314c0-7.747,2.344-14.679,7.029-20.801
		c4.684-6.119,10.66-10.232,17.932-12.335v-0.144c-1.244-0.287-1.961-0.956-2.152-2.009c-0.193-0.766,0.021-1.506,0.646-2.223
		c0.619-0.719,1.457-1.171,2.51-1.362c0.381-0.097,0.764-0.145,1.148-0.145c1.91,0,3.012,0.718,3.299,2.152
		c0.287,0.955-0.1,1.816-1.148,2.581c0,0.097,0.047,0.193,0.145,0.288c1.623-0.288,3.299-0.431,5.018-0.431
		C48.718,56.146,56.823,59.517,63.563,66.26z M65.354,90.573c0-1.147-0.094-2.296-0.285-3.443l-5.736-0.86l5.02-3.013
		c-1.242-4.304-3.439-8.033-6.598-11.188c-5.166-5.067-11.332-7.604-18.506-7.604c-1.148,0-2.293,0.096-3.441,0.288l-0.859,5.736
		l-3.012-5.021c-4.305,1.242-8.033,3.443-11.188,6.6c-5.072,5.163-7.604,11.332-7.604,18.504c0,1.146,0.094,2.294,0.285,3.442
		l5.738,0.861l-5.023,3.011c1.244,4.304,3.445,8.035,6.604,11.19c5.16,5.07,11.328,7.602,18.5,7.602c1.15,0,2.297-0.094,3.445-0.286
		l0.859-5.739l3.012,5.023c4.305-1.242,8.033-3.445,11.189-6.6C62.823,103.912,65.354,97.745,65.354,90.573z M46.423,86.844v0.143
		l8.609,0.287l-7.746,3.587c0,1.053-0.242,2.102-0.721,3.155l3.301,3.443l-4.592-1.579c-0.672,0.768-1.484,1.387-2.438,1.865
		l-0.287,8.606l-3.588-7.747c-1.24-0.094-2.391-0.38-3.439-0.859l-14.059,10.616l10.613-14.06v-0.143l-8.605-0.287l7.748-3.587
		c0-1.051,0.234-2.103,0.717-3.155l-3.301-3.442l4.59,1.578c0.666-0.765,1.482-1.387,2.438-1.864l0.287-8.606l3.586,7.744
		c1.242,0.097,2.391,0.383,3.443,0.862l14.059-10.617L46.423,86.844z M30.073,56.146c0.377-0.575,0.879-0.934,1.504-1.077
		c0.619-0.142,1.219-0.021,1.793,0.359c0.666-0.479,0.953-1.005,0.861-1.577c-0.195-0.766-0.959-1.149-2.295-1.149
		c-0.287,0-0.574,0.051-0.863,0.146c-0.766,0.095-1.387,0.382-1.861,0.86c-0.484,0.479-0.672,0.909-0.576,1.292
		C28.825,55.571,29.304,55.955,30.073,56.146z M33.513,86.844c-1.051,1.627-1.387,3.349-1.002,5.164
		c0.092,0.383,0.236,0.812,0.43,1.29l3.871-5.164l5.166-3.872c-0.576-0.287-1.199-0.479-1.863-0.574c-0.289,0-0.578,0-0.865,0
		c-0.479,0-0.957,0.049-1.434,0.142C35.997,84.213,34.562,85.217,33.513,86.844z M45.563,93.298c0.572-1.338,0.715-2.725,0.428-4.16
		c-0.094-0.381-0.238-0.811-0.428-1.291l-3.875,5.164l-5.162,3.873c0.574,0.288,1.195,0.479,1.863,0.575c0.289,0,0.572,0,0.859,0
		c0.479,0,0.955-0.048,1.436-0.144c0.766-0.192,1.482-0.478,2.152-0.862C44.079,95.69,44.987,94.639,45.563,93.298z"/>
</g>
</svg>
