<?xml version="1.0" encoding="utf-8"?>
<!-- Generator: Adobe Illustrator 16.0.0, SVG Export Plug-In . SVG Version: 6.00 Build 0)  -->
<!DOCTYPE svg PUBLIC "-//W3C//DTD SVG 1.1//EN" "http://www.w3.org/Graphics/SVG/1.1/DTD/svg11.dtd">
<svg version="1.1" id="Layer_1" xmlns="http://www.w3.org/2000/svg" xmlns:xlink="http://www.w3.org/1999/xlink" x="0px" y="0px"
	 width="81.333px" height="127.667px" viewBox="0 0 81.333 127.667" enable-background="new 0 0 81.333 127.667"
	 xml:space="preserve">
<g>
	<g>
		<path fill="#BCBCBC" d="M30.912,12.05h-2.04V3.308h2.04V12.05z"/>
		<path fill="#BCBCBC" d="M38.16,3.308v1.56h-3.588v2.04h2.748v1.5h-2.748v2.082h3.588v1.56h-5.628V3.308H38.16z"/>
		<path fill="#BCBCBC" d="M40.104,10.706h1.68v-4.41c0-0.216,0.006-0.442,0.018-0.678L40.812,6.44
			c-0.064,0.052-0.129,0.089-0.192,0.111c-0.064,0.022-0.126,0.033-0.187,0.033c-0.104,0-0.196-0.023-0.278-0.069
			c-0.082-0.046-0.144-0.095-0.184-0.147l-0.588-0.78l2.725-2.286h1.535v7.404h1.44v1.344h-4.979V10.706z"/>
		<path fill="#BCBCBC" d="M52.272,7.676c0,0.764-0.082,1.426-0.246,1.986c-0.164,0.56-0.392,1.024-0.682,1.392
			c-0.29,0.368-0.634,0.642-1.031,0.822c-0.398,0.18-0.829,0.27-1.294,0.27c-0.464,0-0.893-0.09-1.286-0.27
			c-0.395-0.18-0.735-0.454-1.023-0.822c-0.288-0.368-0.513-0.832-0.675-1.392c-0.162-0.56-0.243-1.222-0.243-1.986
			s0.081-1.426,0.243-1.986s0.387-1.024,0.675-1.392s0.629-0.641,1.023-0.819c0.394-0.178,0.822-0.267,1.286-0.267
			c0.465,0,0.896,0.089,1.294,0.267c0.397,0.178,0.741,0.451,1.031,0.819s0.518,0.832,0.682,1.392S52.272,6.912,52.272,7.676z
			 M50.351,7.676c0-0.604-0.038-1.099-0.113-1.485c-0.076-0.386-0.178-0.689-0.304-0.909c-0.126-0.22-0.269-0.371-0.429-0.453
			c-0.16-0.082-0.322-0.123-0.486-0.123s-0.324,0.042-0.482,0.123c-0.158,0.082-0.298,0.233-0.42,0.453
			c-0.122,0.22-0.221,0.523-0.294,0.909c-0.074,0.386-0.111,0.881-0.111,1.485c0,0.608,0.037,1.104,0.111,1.488
			c0.073,0.384,0.172,0.687,0.294,0.909s0.262,0.374,0.42,0.456s0.318,0.123,0.482,0.123s0.326-0.041,0.486-0.123
			s0.303-0.234,0.429-0.456s0.228-0.525,0.304-0.909C50.313,8.78,50.351,8.284,50.351,7.676z"/>
	</g>
	<g>
		<path fill="#BCBCBC" d="M58.607,4.976v2.376h2.22v1.332h-2.22v2.388h-1.512V8.684h-2.208V7.352h2.208V4.976H58.607z"/>
	</g>
</g>
<g>
	<path fill="none" stroke="#C6C6C6" stroke-width="2" stroke-miterlimit="10" d="M30.037,94.945v0.153
		c0,2.464,0.563,4.831,1.692,7.089c1.334,2.361,3.159,4.236,5.472,5.625c2.309,1.385,4.876,2.078,7.701,2.078
		s5.395-0.693,7.706-2.078c2.31-1.389,4.132-3.264,5.468-5.625h18.337c-2.365,6.678-6.473,12.146-12.327,16.408
		c-5.855,4.262-12.43,6.395-19.723,6.395c-5.445,0-10.578-1.182-15.404-3.543c-10.786,5.238-18.543,5.492-23.267,0.768
		c-1.644-1.535-2.465-4.107-2.465-7.701c0-3.596,0.692-7.602,2.079-12.02c1.387-4.415,3.698-9.268,6.934-14.558
		S19.3,77.845,23.717,73.531c2.566-2.671,4.212-4.315,4.931-4.931c-6.369,3.081-12.12,7.857-17.256,14.33
		c1.849-7.501,5.829-13.663,11.941-18.49c6.109-4.829,13.121-7.242,21.029-7.242c0.822,0,1.644,0.052,2.467,0.154
		c5.752-2.568,10.988-4.006,15.715-4.314c4.725-0.308,8.063,0.462,10.016,2.311c3.9,4.006,4.261,10.272,1.077,18.798
		c2.979,5.236,4.469,10.889,4.469,16.947c0,1.438-0.053,2.722-0.154,3.851h-18.18H30.037z M26.799,120.213
		c-6.882-4.209-11.71-10.117-14.483-17.719c-4.622,9.041-5.237,15.254-1.849,18.643C13.447,124.117,18.889,123.809,26.799,120.213z
		 M58.539,86.01c-0.207-3.698-1.694-6.855-4.469-9.475c-2.773-2.62-6.035-3.929-9.783-3.929c-3.749,0-7.009,1.309-9.784,3.929
		c-2.773,2.619-4.263,5.776-4.466,9.475H58.539z M56.844,59.664c6.571,2.671,11.811,6.986,15.716,12.943
		c2.362-6.369,2.259-10.837-0.31-13.405C69.477,56.326,64.34,56.48,56.844,59.664z"/>
</g>
</svg>
