<?xml version="1.0" encoding="utf-8"?>
<!-- Generator: Adobe Illustrator 16.0.0, SVG Export Plug-In . SVG Version: 6.00 Build 0)  -->
<!DOCTYPE svg PUBLIC "-//W3C//DTD SVG 1.1//EN" "http://www.w3.org/Graphics/SVG/1.1/DTD/svg11.dtd">
<svg version="1.1" id="Layer_1" xmlns="http://www.w3.org/2000/svg" xmlns:xlink="http://www.w3.org/1999/xlink" x="0px" y="0px"
	 width="80.667px" height="127.667px" viewBox="0 0 80.667 127.667" enable-background="new 0 0 80.667 127.667"
	 xml:space="preserve">
<g>
	<path fill="none" stroke="#C6C6C6" stroke-width="2" stroke-miterlimit="10" d="M77.001,80.124c0,0.92-0.072,2.709-0.216,5.37
		c-0.146,2.661-0.461,5.272-0.942,7.834c-0.487,2.565-1.379,5.442-2.687,8.635c-1.307,3.192-2.901,6.071-4.79,8.635
		c-1.885,2.563-4.473,4.981-7.763,7.254c-3.288,2.274-7.013,3.894-11.171,4.861c-2.229,0.581-4.501,0.918-6.822,1.016
		c-0.096,0-0.287,0.046-0.578,0.145c-1.938,0.095-3.871,0.095-5.804,0c-11.996-0.967-21.137-6.867-27.424-17.703
		c-2.902-5.127-4.549-10.012-4.934-14.655c-0.291,1.355-0.487,2.517-0.582,3.483C3,89.483,3.436,84.985,4.596,81.502
		c-0.87,1.451-1.5,2.806-1.886,4.063c0.774-4.353,1.789-7.786,3.047-10.302c0.095-0.581,0.674-1.645,1.74-3.192
		c0-0.193,0-0.339,0-0.435c-0.194-2.708,0.074-5.151,0.8-7.328c0.726-2.176,1.326-3.531,1.813-4.063
		c0.483-0.531,0.87-0.943,1.161-1.233c0.095,2.322,1.307,4.547,3.629,6.675c0.579,0.097,1.109,0.145,1.596,0.145
		c2.415-0.483,4.934-0.435,7.544,0.145c1.546-1.936,3.919-3.241,7.111-3.918l2.756-0.145c-2.808,1.645-4.499,4.014-5.078,7.109
		c1.063,2.227,2.466,3.338,4.207,3.338c1.451,0,2.515,0,3.193,0c1.643,0,2.514,0.145,2.612,0.435v0.146v0.146
		c0.093,0.096,0.093,0.242,0,0.435v0.146v0.145c-0.098,0.967-0.435,1.693-1.016,2.176c-0.098,0-0.145,0.025-0.145,0.073
		c0,0.049-0.051,0.073-0.146,0.073c0,0.096-0.435,0.387-1.305,0.871c-1.161,0.774-2.082,1.402-2.756,1.887
		c-1.259,0.774-1.887,1.306-1.887,1.596v0.146h-0.145c0.289,0.58,0.482,1.306,0.58,2.176c0.192,0.871,0.239,1.402,0.146,1.595
		c0,0.485,0,0.92,0,1.306c-1.161-0.58-2.275-0.966-3.338-1.161c-1.356,0.581-2.13,1.21-2.321,1.886
		c-0.098,0.388-0.196,0.775-0.291,1.161c0,1.838,1.305,3.532,3.917,5.079c1.063,0.677,2.152,1.064,3.264,1.16
		c1.111,0.098,1.981,0.049,2.612-0.145c0.628-0.193,1.4-0.482,2.323-0.871c0.917-0.386,1.57-0.629,1.957-0.726
		c2.903-0.774,5.272-0.096,7.109,2.032c0.581,0.58,0.701,1.137,0.365,1.668c-0.34,0.533-0.849,0.702-1.525,0.508
		c-0.289,0.097-0.485,0.123-0.578,0.072c-0.098-0.047-0.316,0-0.655,0.145c-0.34,0.145-0.58,0.243-0.724,0.29
		c-0.148,0.05-0.389,0.196-0.726,0.435c-0.342,0.243-0.605,0.412-0.799,0.509c-0.194,0.098-0.506,0.315-0.944,0.654
		c-0.435,0.337-0.796,0.557-1.087,0.65c-1.161,0.872-2.829,1.502-5.004,1.887c-2.177,0.389-3.991,0.389-5.441,0
		c1.161,0.871,2.078,1.502,2.755,1.887c0.676,0.389,1.79,0.994,3.338,1.813c1.546,0.824,2.877,1.356,3.99,1.596
		c1.111,0.242,2.515,0.363,4.208,0.363c1.692,0,3.241-0.289,4.643-0.87c1.4-0.58,2.901-1.57,4.499-2.976
		c1.594-1.399,3.118-3.165,4.571-5.296c0.291-0.483,0.483-0.773,0.578-0.871c0.195,0-0.048,1.306-0.724,3.918
		c-0.291,1.355-0.387,2.03-0.291,2.03c1.646-1.159,2.779-3.384,3.41-6.673c0.629-3.289,0.702-6.48,0.216-9.578
		c1.161,0.485,1.984,1.404,2.466,2.757l0.292,0.291c0.579-1.837,0.918-4.231,1.016-7.183c0.095-2.95-0.194-5.392-0.87-7.327
		c1.256,0.386,2.415,1.646,3.482,3.772c-0.291-1.547-0.728-2.975-1.305-4.281c-0.583-1.306-1.235-2.417-1.962-3.337
		c-0.723-0.919-1.5-1.789-2.321-2.612c-0.822-0.82-1.668-1.499-2.537-2.031c-0.874-0.531-1.718-1.016-2.54-1.452
		c-0.823-0.435-1.598-0.773-2.322-1.016c-0.728-0.241-1.379-0.435-1.958-0.58c-0.583-0.146-1.019-0.241-1.305-0.29
		c-0.291-0.048-0.389-0.073-0.291-0.073c2.417-0.676,4.882-1.016,7.399-1.016c-0.291-0.484-0.848-0.919-1.67-1.306
		c-0.822-0.386-1.718-0.726-2.684-1.016s-1.911-0.531-2.828-0.726c-0.923-0.193-2.009-0.435-3.265-0.726h-0.145h0.287
		c2.709-0.773,6.965-0.193,12.771,1.742c2.125,0.677,4.063,1.911,5.802,3.7c1.744,1.792,2.833,3.121,3.268,3.991
		c0.433,0.871,0.748,1.596,0.942,2.177v-0.581c0.095-0.483,0.022-1.233-0.217-2.249c-0.244-1.016-0.606-2.104-1.088-3.265
		c0.093,0,0.239,0.073,0.435,0.217c0.192,0.145,0.555,0.678,1.088,1.597c0.53,0.919,1.135,2.249,1.813,3.99
		c1.065,2.612,1.982,7.304,2.757,14.074l0.872-5.513C76.95,78.504,77.001,79.205,77.001,80.124z"/>
</g>
<g>
	<path fill="#BCBCBC" d="M21.386,3.308v1.56h-3.588v2.214h2.988v1.566h-2.988v3.402h-2.04V3.308H21.386z"/>
	<path fill="#BCBCBC" d="M24.662,12.05h-2.04V3.308h2.04V12.05z"/>
	<path fill="#BCBCBC" d="M28.31,8.816v3.234h-2.028V3.308h2.844c0.632,0,1.171,0.065,1.617,0.195c0.446,0.13,0.81,0.311,1.092,0.543
		c0.282,0.232,0.487,0.506,0.615,0.822c0.128,0.316,0.192,0.66,0.192,1.032c0,0.284-0.038,0.552-0.114,0.804
		c-0.076,0.252-0.189,0.485-0.339,0.699s-0.334,0.405-0.552,0.573c-0.218,0.168-0.469,0.306-0.753,0.414
		c0.136,0.068,0.263,0.152,0.381,0.252c0.118,0.1,0.221,0.222,0.309,0.366l1.86,3.042h-1.836c-0.34,0-0.584-0.128-0.732-0.384
		l-1.452-2.538c-0.064-0.112-0.139-0.192-0.225-0.24c-0.086-0.048-0.207-0.072-0.363-0.072H28.31z M28.31,7.418h0.816
		c0.276,0,0.511-0.035,0.705-0.105c0.194-0.07,0.353-0.167,0.477-0.291s0.214-0.269,0.27-0.435c0.056-0.166,0.084-0.345,0.084-0.537
		c0-0.384-0.125-0.684-0.375-0.9c-0.25-0.216-0.637-0.324-1.161-0.324H28.31V7.418z"/>
	<path fill="#BCBCBC" d="M39.89,3.308v1.56h-3.588v2.04h2.748v1.5h-2.748v2.082h3.588v1.56h-5.628V3.308H39.89z"/>
	<path fill="#BCBCBC" d="M46.669,3.308v1.56h-3.588v2.214h2.988v1.566h-2.988v3.402h-2.04V3.308H46.669z"/>
	<path fill="#BCBCBC" d="M56.353,7.676c0,0.632-0.109,1.22-0.327,1.764c-0.218,0.544-0.525,1.017-0.921,1.419
		s-0.873,0.717-1.431,0.945s-1.177,0.342-1.857,0.342s-1.3-0.114-1.86-0.342s-1.039-0.543-1.437-0.945
		c-0.398-0.402-0.706-0.875-0.924-1.419c-0.218-0.544-0.327-1.132-0.327-1.764c0-0.632,0.109-1.22,0.327-1.764
		c0.218-0.544,0.526-1.016,0.924-1.416c0.398-0.4,0.877-0.714,1.437-0.942s1.18-0.342,1.86-0.342s1.299,0.115,1.857,0.345
		c0.558,0.23,1.035,0.545,1.431,0.945s0.703,0.872,0.921,1.416C56.244,6.462,56.353,7.048,56.353,7.676z M54.277,7.676
		c0-0.432-0.056-0.821-0.168-1.167c-0.112-0.346-0.273-0.639-0.483-0.879c-0.21-0.24-0.467-0.424-0.771-0.552
		c-0.304-0.128-0.65-0.192-1.038-0.192c-0.392,0-0.741,0.064-1.047,0.192c-0.306,0.128-0.564,0.312-0.774,0.552
		c-0.21,0.24-0.371,0.533-0.483,0.879c-0.112,0.346-0.168,0.735-0.168,1.167c0,0.436,0.056,0.827,0.168,1.173
		c0.112,0.346,0.273,0.639,0.483,0.879c0.21,0.24,0.468,0.423,0.774,0.549c0.306,0.126,0.655,0.189,1.047,0.189
		c0.388,0,0.734-0.063,1.038-0.189c0.304-0.126,0.561-0.309,0.771-0.549c0.21-0.24,0.371-0.533,0.483-0.879
		C54.221,8.503,54.277,8.112,54.277,7.676z"/>
	<path fill="#BCBCBC" d="M59.299,7.556l-2.706-4.248h2.028c0.132,0,0.229,0.017,0.291,0.051s0.117,0.091,0.165,0.171l1.74,2.946
		c0.02-0.052,0.043-0.102,0.069-0.15c0.026-0.048,0.055-0.098,0.087-0.15l1.524-2.616c0.1-0.168,0.236-0.252,0.408-0.252h1.944
		l-2.742,4.158l2.802,4.584h-2.028c-0.132,0-0.239-0.032-0.321-0.096c-0.082-0.064-0.147-0.14-0.195-0.228l-1.752-3.06
		c-0.032,0.088-0.068,0.164-0.108,0.228l-1.632,2.832c-0.048,0.084-0.112,0.159-0.192,0.225s-0.18,0.099-0.3,0.099h-1.896
		L59.299,7.556z"/>
</g>
</svg>
