<?xml version="1.0" encoding="utf-8"?>
<!-- Generator: Adobe Illustrator 16.0.0, SVG Export Plug-In . SVG Version: 6.00 Build 0)  -->
<!DOCTYPE svg PUBLIC "-//W3C//DTD SVG 1.1//EN" "http://www.w3.org/Graphics/SVG/1.1/DTD/svg11.dtd">
<svg version="1.1" id="Layer_1" xmlns="http://www.w3.org/2000/svg" xmlns:xlink="http://www.w3.org/1999/xlink" x="0px" y="0px"
	 width="75.514px" height="127.667px" viewBox="0 0 75.514 127.667" enable-background="new 0 0 75.514 127.667"
	 xml:space="preserve">
<g>
	<path fill="none" stroke="#C6C6C6" stroke-width="2" stroke-miterlimit="10" d="M42.424,107.668l-9.733,16.934
		c-8.264-1.249-15.18-5.039-20.724-11.398c-5.561-6.351-8.334-13.798-8.334-22.326c0-5.952,1.461-11.554,4.401-16.797l13.86,24.263
		c1.426,2.932,3.551,5.331,6.403,7.2c2.834,1.858,5.987,2.798,9.458,2.798C39.35,108.341,40.909,108.119,42.424,107.668z"/>
	<path fill="none" stroke="#C6C6C6" stroke-width="2" stroke-miterlimit="10" d="M20.824,86.48l-9.726-16.929
		c3.197-3.999,7.104-7.134,11.726-9.396c4.623-2.268,9.601-3.401,14.932-3.401c6.129,0,11.798,1.509,16.996,4.53
		c5.199,3.025,9.309,7.112,12.328,12.266H39.227c-0.451-0.088-0.938-0.133-1.471-0.133c-4.004,0-7.581,1.222-10.732,3.662
		C23.869,79.527,21.807,82.658,20.824,86.48z"/>
	<path fill="none" stroke="#C6C6C6" stroke-width="2" stroke-miterlimit="10" d="M29.023,99.61
		c-2.443-2.446-3.666-5.355-3.666-8.733c0-3.375,1.223-6.289,3.666-8.733c2.445-2.44,5.35-3.662,8.732-3.662
		c3.375,0,6.288,1.222,8.732,3.662c2.445,2.444,3.668,5.358,3.668,8.733c0,3.378-1.223,6.287-3.668,8.733
		c-2.444,2.443-5.357,3.666-8.732,3.666C34.373,103.276,31.469,102.054,29.023,99.61z"/>
	<path fill="none" stroke="#C6C6C6" stroke-width="2" stroke-miterlimit="10" d="M50.022,78.345h19.457
		c1.604,4.002,2.401,8.178,2.401,12.532c0,9.334-3.285,17.332-9.866,23.991C55.443,121.537,47.49,124.912,38.155,125l13.993-24.125
		c2.046-3.021,3.072-6.354,3.072-9.998C55.221,85.992,53.486,81.812,50.022,78.345z"/>
</g>
<g>
	<path fill="#BCBCBC" d="M18.317,9.788c0.047,0,0.096,0.009,0.143,0.027c0.049,0.018,0.095,0.049,0.139,0.093l0.805,0.846
		c-0.353,0.46-0.793,0.807-1.324,1.041c-0.529,0.234-1.156,0.351-1.881,0.351c-0.664,0-1.259-0.113-1.785-0.339
		c-0.525-0.226-0.971-0.538-1.338-0.936c-0.365-0.398-0.646-0.87-0.843-1.416c-0.196-0.546-0.294-1.139-0.294-1.779
		c0-0.652,0.112-1.251,0.336-1.797c0.225-0.546,0.537-1.017,0.939-1.413s0.883-0.704,1.443-0.924c0.56-0.22,1.178-0.33,1.854-0.33
		c0.328,0,0.637,0.029,0.927,0.087s0.562,0.138,0.813,0.24c0.252,0.102,0.483,0.224,0.695,0.366c0.213,0.142,0.4,0.299,0.564,0.471
		l-0.684,0.918c-0.045,0.056-0.097,0.107-0.156,0.153c-0.061,0.046-0.145,0.069-0.252,0.069c-0.072,0-0.141-0.016-0.204-0.048
		c-0.064-0.032-0.132-0.071-0.204-0.117c-0.072-0.046-0.15-0.096-0.237-0.15c-0.086-0.054-0.188-0.104-0.306-0.15
		c-0.118-0.046-0.256-0.085-0.414-0.117c-0.158-0.032-0.344-0.048-0.555-0.048c-0.369,0-0.705,0.065-1.008,0.195
		c-0.305,0.13-0.565,0.316-0.783,0.558c-0.219,0.242-0.389,0.535-0.51,0.879c-0.123,0.344-0.184,0.73-0.184,1.158
		c0,0.448,0.061,0.846,0.184,1.194c0.121,0.348,0.287,0.641,0.498,0.879c0.209,0.238,0.454,0.419,0.734,0.543
		c0.279,0.124,0.58,0.186,0.9,0.186c0.184,0,0.352-0.009,0.504-0.027s0.293-0.049,0.423-0.093s0.254-0.101,0.372-0.171
		c0.117-0.07,0.236-0.157,0.357-0.261c0.047-0.04,0.1-0.073,0.155-0.099C18.198,9.801,18.257,9.788,18.317,9.788z"/>
	<path fill="#BCBCBC" d="M27.958,12.05h-2.039V8.354h-3.553v3.696h-2.039V3.308h2.039v3.654h3.553V3.308h2.039V12.05z"/>
	<path fill="#BCBCBC" d="M31.427,8.816v3.234h-2.027V3.308h2.844c0.631,0,1.17,0.065,1.617,0.195c0.445,0.13,0.81,0.311,1.092,0.543
		c0.281,0.232,0.486,0.506,0.615,0.822c0.127,0.316,0.191,0.66,0.191,1.032c0,0.284-0.038,0.552-0.114,0.804
		c-0.075,0.252-0.188,0.485-0.339,0.699s-0.334,0.405-0.552,0.573c-0.218,0.168-0.47,0.306-0.753,0.414
		c0.136,0.068,0.263,0.152,0.381,0.252c0.117,0.1,0.221,0.222,0.309,0.366l1.86,3.042h-1.836c-0.341,0-0.584-0.128-0.731-0.384
		L32.53,9.128c-0.063-0.112-0.139-0.192-0.225-0.24c-0.086-0.048-0.207-0.072-0.363-0.072H31.427z M31.427,7.418h0.816
		c0.275,0,0.51-0.035,0.705-0.105c0.193-0.07,0.353-0.167,0.477-0.291s0.214-0.269,0.27-0.435c0.057-0.166,0.084-0.345,0.084-0.537
		c0-0.384-0.125-0.684-0.375-0.9c-0.25-0.216-0.637-0.324-1.16-0.324h-0.816V7.418z"/>
	<path fill="#BCBCBC" d="M45.706,7.676c0,0.632-0.109,1.22-0.326,1.764c-0.219,0.544-0.525,1.017-0.922,1.419
		c-0.396,0.402-0.873,0.717-1.431,0.945s-1.177,0.342-1.856,0.342c-0.681,0-1.301-0.114-1.86-0.342s-1.039-0.543-1.437-0.945
		c-0.398-0.402-0.707-0.875-0.925-1.419s-0.327-1.132-0.327-1.764c0-0.632,0.109-1.22,0.327-1.764
		c0.218-0.544,0.526-1.016,0.925-1.416c0.397-0.4,0.877-0.714,1.437-0.942s1.18-0.342,1.86-0.342c0.68,0,1.299,0.115,1.856,0.345
		c0.558,0.23,1.035,0.545,1.431,0.945c0.396,0.4,0.703,0.872,0.922,1.416C45.597,6.462,45.706,7.048,45.706,7.676z M43.63,7.676
		c0-0.432-0.056-0.821-0.168-1.167c-0.111-0.346-0.272-0.639-0.482-0.879c-0.21-0.24-0.467-0.424-0.771-0.552
		c-0.304-0.128-0.65-0.192-1.037-0.192c-0.393,0-0.742,0.064-1.047,0.192C39.817,5.206,39.56,5.39,39.35,5.63
		c-0.21,0.24-0.371,0.533-0.483,0.879c-0.111,0.346-0.168,0.735-0.168,1.167c0,0.436,0.057,0.827,0.168,1.173
		c0.112,0.346,0.273,0.639,0.483,0.879c0.21,0.24,0.468,0.423,0.774,0.549c0.305,0.126,0.654,0.189,1.047,0.189
		c0.387,0,0.733-0.063,1.037-0.189c0.305-0.126,0.562-0.309,0.771-0.549c0.21-0.24,0.371-0.533,0.482-0.879
		C43.574,8.503,43.63,8.112,43.63,7.676z"/>
	<path fill="#BCBCBC" d="M51.38,8.527c0.074,0.164,0.145,0.333,0.213,0.504c0.068-0.176,0.14-0.347,0.216-0.514
		c0.075-0.166,0.153-0.327,0.233-0.483l2.244-4.42c0.041-0.076,0.082-0.135,0.123-0.177c0.043-0.042,0.09-0.073,0.141-0.093
		c0.053-0.02,0.111-0.03,0.178-0.03s0.143,0,0.23,0h1.549v8.736h-1.789V7.022c0-0.244,0.013-0.508,0.037-0.792l-2.316,4.494
		c-0.072,0.14-0.169,0.246-0.291,0.318c-0.122,0.072-0.261,0.108-0.417,0.108h-0.276c-0.156,0-0.295-0.036-0.416-0.108
		c-0.123-0.072-0.22-0.178-0.291-0.318l-2.328-4.5c0.016,0.14,0.027,0.279,0.035,0.417c0.008,0.138,0.012,0.265,0.012,0.381v5.028
		h-1.787V3.314h1.548c0.088,0,0.165,0,0.231,0c0.065,0,0.125,0.01,0.176,0.03c0.053,0.02,0.1,0.051,0.142,0.093
		s0.083,0.101,0.123,0.177l2.25,4.438C51.229,8.205,51.306,8.363,51.38,8.527z"/>
	<path fill="#BCBCBC" d="M63.575,3.308v1.56h-3.589v2.04h2.748v1.5h-2.748v2.082h3.589v1.56h-5.629V3.308H63.575z"/>
</g>
</svg>
