<?xml version="1.0" encoding="utf-8"?>
<!-- Generator: Adobe Illustrator 16.0.0, SVG Export Plug-In . SVG Version: 6.00 Build 0)  -->
<!DOCTYPE svg PUBLIC "-//W3C//DTD SVG 1.1//EN" "http://www.w3.org/Graphics/SVG/1.1/DTD/svg11.dtd">
<svg version="1.1" id="Layer_1" xmlns="http://www.w3.org/2000/svg" xmlns:xlink="http://www.w3.org/1999/xlink" x="0px" y="0px"
	 width="74.867px" height="127.167px" viewBox="0 0 74.867 127.167" enable-background="new 0 0 74.867 127.167"
	 xml:space="preserve">
<g>
	<path fill="none" stroke="#C6C6C6" stroke-width="2" stroke-miterlimit="10" d="M60.936,64.787
		c6.219,6.357,9.33,14.713,9.33,25.066c0,9.446-3.111,17.665-9.33,24.659C54.711,121.502,46.834,125,37.297,125
		c-9.445,0-17.256-3.498-23.432-10.488c-6.176-6.994-9.264-15.213-9.264-24.659c0-10.354,3.043-18.709,9.127-25.066
		c6.086-6.357,13.943-9.537,23.568-9.537C46.834,55.25,54.711,58.43,60.936,64.787z M49.016,79.363
		c-0.275-2.814-0.818-5.563-1.637-8.243c-0.818-2.678-2.068-4.745-3.746-6.198c-1.682-1.452-3.793-2.18-6.336-2.18
		s-4.633,0.703-6.266,2.111c-1.635,1.409-2.84,3.473-3.611,6.198c-0.771,2.724-1.293,5.45-1.566,8.174
		c-0.271,2.724-0.408,6.041-0.408,9.945c0,2.451,0.045,4.518,0.137,6.198c0.09,1.682,0.248,3.725,0.477,6.131
		c0.227,2.407,0.59,4.428,1.09,6.063c0.498,1.634,1.18,3.248,2.045,4.837c0.859,1.589,1.975,2.792,3.336,3.61
		c1.363,0.816,2.949,1.225,4.768,1.225c1.816,0,3.428-0.408,4.838-1.225c1.404-0.818,2.541-2.021,3.404-3.61
		c0.861-1.589,1.566-3.203,2.111-4.837c0.547-1.635,0.955-3.655,1.227-6.063c0.273-2.406,0.43-4.474,0.477-6.198
		c0.045-1.725,0.068-3.769,0.068-6.131C49.422,85.449,49.285,82.178,49.016,79.363z"/>
</g>
<g>
	<g>
		<path fill="#BCBCBC" d="M26.176,7.709c0,0.637-0.11,1.229-0.329,1.777c-0.22,0.548-0.529,1.024-0.929,1.429
			c-0.398,0.405-0.879,0.723-1.44,0.952c-0.563,0.23-1.187,0.345-1.871,0.345c-0.686,0-1.31-0.115-1.874-0.345
			c-0.564-0.229-1.047-0.547-1.448-0.952c-0.4-0.405-0.711-0.881-0.931-1.429c-0.219-0.548-0.329-1.141-0.329-1.777
			c0-0.636,0.11-1.229,0.329-1.777c0.22-0.548,0.53-1.023,0.931-1.427c0.401-0.403,0.884-0.719,1.448-0.949
			c0.564-0.23,1.188-0.345,1.874-0.345c0.685,0,1.309,0.116,1.871,0.348c0.562,0.232,1.042,0.549,1.44,0.952
			c0.399,0.403,0.709,0.878,0.929,1.426C26.065,6.486,26.176,7.077,26.176,7.709z M24.085,7.709c0-0.435-0.058-0.827-0.17-1.176
			c-0.113-0.349-0.274-0.644-0.486-0.885c-0.212-0.242-0.471-0.427-0.776-0.556c-0.307-0.129-0.655-0.193-1.046-0.193
			c-0.396,0-0.746,0.064-1.055,0.193c-0.309,0.129-0.568,0.314-0.78,0.556c-0.212,0.242-0.373,0.537-0.486,0.885
			c-0.112,0.349-0.17,0.741-0.17,1.176c0,0.439,0.058,0.833,0.17,1.182c0.113,0.348,0.274,0.644,0.486,0.885
			c0.212,0.242,0.472,0.427,0.78,0.554c0.309,0.126,0.659,0.19,1.055,0.19c0.391,0,0.739-0.063,1.046-0.19
			c0.306-0.127,0.564-0.312,0.776-0.554c0.212-0.241,0.373-0.537,0.486-0.885C24.027,8.542,24.085,8.148,24.085,7.709z"/>
		<path fill="#BCBCBC" d="M29.422,9.172v2.943h-2.044V3.309h3.107c0.62,0,1.153,0.074,1.599,0.221
			c0.445,0.147,0.812,0.35,1.101,0.607c0.287,0.258,0.5,0.562,0.638,0.913c0.136,0.351,0.205,0.729,0.205,1.136
			c0,0.439-0.07,0.843-0.212,1.209c-0.141,0.367-0.356,0.681-0.646,0.942c-0.29,0.262-0.657,0.467-1.103,0.614
			c-0.446,0.147-0.973,0.221-1.581,0.221H29.422z M29.422,7.63h1.063c0.532,0,0.915-0.127,1.148-0.381s0.351-0.608,0.351-1.064
			c0-0.201-0.03-0.384-0.091-0.55c-0.061-0.165-0.152-0.307-0.274-0.426c-0.123-0.119-0.278-0.211-0.466-0.275
			s-0.41-0.097-0.668-0.097h-1.063V7.63z"/>
		<path fill="#BCBCBC" d="M40.735,3.309V4.88h-3.613v2.055h2.768v1.511h-2.768v2.098h3.613v1.571h-5.669V3.309H40.735z"/>
		<path fill="#BCBCBC" d="M44.037,8.857v3.258h-2.043V3.309h2.864c0.638,0,1.181,0.065,1.63,0.196s0.815,0.313,1.1,0.547
			c0.284,0.234,0.491,0.51,0.62,0.829c0.129,0.318,0.193,0.665,0.193,1.04c0,0.286-0.038,0.556-0.115,0.81
			c-0.076,0.253-0.189,0.489-0.341,0.704c-0.151,0.216-0.337,0.408-0.557,0.577s-0.473,0.308-0.759,0.417
			c0.138,0.069,0.265,0.154,0.381,0.257c0.117,0.103,0.222,0.225,0.314,0.366l1.874,3.064h-1.85c-0.343,0-0.588-0.128-0.737-0.387
			l-1.463-2.557c-0.068-0.109-0.146-0.188-0.23-0.239c-0.084-0.05-0.205-0.075-0.361-0.075H44.037z M44.037,7.449h0.821
			c0.278,0,0.516-0.035,0.711-0.106c0.196-0.07,0.355-0.168,0.481-0.293c0.124-0.125,0.215-0.271,0.271-0.438
			c0.058-0.167,0.085-0.348,0.085-0.541c0-0.387-0.126-0.689-0.378-0.907c-0.251-0.218-0.642-0.327-1.17-0.327h-0.821V7.449z"/>
		<path fill="#BCBCBC" d="M57.843,12.115h-1.584c-0.178,0-0.32-0.042-0.43-0.124c-0.108-0.083-0.19-0.188-0.248-0.317l-0.52-1.535
			h-3.349l-0.52,1.535c-0.045,0.113-0.124,0.214-0.239,0.305c-0.114,0.09-0.256,0.136-0.426,0.136h-1.596l3.409-8.807h2.091
			L57.843,12.115z M52.185,8.749h2.405l-0.81-2.412c-0.061-0.153-0.125-0.333-0.193-0.541c-0.069-0.207-0.137-0.432-0.205-0.674
			c-0.065,0.246-0.13,0.474-0.196,0.683s-0.131,0.391-0.191,0.544L52.185,8.749z"/>
	</g>
</g>
</svg>
