<?xml version="1.0" encoding="utf-8"?>
<!-- Generator: Adobe Illustrator 16.0.0, SVG Export Plug-In . SVG Version: 6.00 Build 0)  -->
<!DOCTYPE svg PUBLIC "-//W3C//DTD SVG 1.1//EN" "http://www.w3.org/Graphics/SVG/1.1/DTD/svg11.dtd">
<svg version="1.1" id="Your_Icon" xmlns="http://www.w3.org/2000/svg" xmlns:xlink="http://www.w3.org/1999/xlink" x="0px" y="0px"
	 width="100px" height="100px" viewBox="0 0 100 100" enable-background="new 0 0 100 100" xml:space="preserve">
<path id="linkedin-icon" fill="#FFFFFF" stroke="#FFFFFF" stroke-width="2" stroke-miterlimit="10" d="M41.678,37.731
	c0,2.211-1.777,4.003-3.971,4.003s-3.971-1.792-3.971-4.003c0-2.211,1.778-4.003,3.971-4.003S41.678,35.52,41.678,37.731z
	 M41.097,44.576h-6.716v21.697h6.716V44.576z M51.832,44.576h-6.441v21.697h6.441c0,0,0-8.048,0-11.391
	c0-3.05,1.404-4.867,4.092-4.867c2.471,0,3.658,1.744,3.658,4.867c0,3.124,0,11.391,0,11.391h6.682c0,0,0-7.927,0-13.738
	c0-5.812-3.293-8.621-7.895-8.621c-4.6,0-6.537,3.584-6.537,3.584V44.576L51.832,44.576z"/>
</svg>
