<?xml version="1.0" encoding="utf-8"?>
<!-- Generator: Adobe Illustrator 16.0.0, SVG Export Plug-In . SVG Version: 6.00 Build 0)  -->
<!DOCTYPE svg PUBLIC "-//W3C//DTD SVG 1.1//EN" "http://www.w3.org/Graphics/SVG/1.1/DTD/svg11.dtd">
<svg version="1.1" id="Layer_1" xmlns="http://www.w3.org/2000/svg" xmlns:xlink="http://www.w3.org/1999/xlink" x="0px" y="0px"
	 width="502.5px" height="635.5px" viewBox="0 0 502.5 635.5" enable-background="new 0 0 502.5 635.5" xml:space="preserve">
<path fill="#FFFFFF" d="M488.25,4.75h-474c-5.522,0-10,4.477-10,10v268c0,5.521,4.478,10,10,10h474c5.522,0,10-4.479,10-10v-268
	C498.25,9.227,493.773,4.75,488.25,4.75z M207.76,104.049c6.802,0,12.2,5.601,12.2,12.199c0,6.601-5.601,12.2-12.2,12.2
	s-12.198-5.6-12.198-12.2C195.161,109.65,200.76,104.049,207.76,104.049z M315.961,191.85c-0.602,1.199-1.802,1.6-3,1.6H189.36
	c-1.399,0-2.399-0.6-3-1.799c-0.399-1.401-0.198-2.801,0.601-3.602l36-49.399c0.801-1.4,2.602-1.801,4.2-0.801l15.399,8l25.198-34
	c0.602-0.8,1.802-1.399,3-1.399c1.2,0,2,0.6,2.602,1.8l42.602,76.2C316.562,189.651,316.36,190.651,315.961,191.85z"/>
<g>
	<rect x="8.833" y="321.165" fill="#FFFFFF" width="483.999" height="10.667"/>
	<g>
		<rect x="120.095" y="343.165" fill="#FFFFFF" width="233.407" height="10.667"/>
		<rect x="8.833" y="343.165" fill="#FFFFFF" width="96.75" height="10.667"/>
		<rect x="366.201" y="343.165" fill="#FFFFFF" width="81.633" height="10.667"/>
	</g>
	<g>
		<rect x="8.833" y="365.165" fill="#FFFFFF" width="236.547" height="10.667"/>
		<rect x="260.165" y="365.165" fill="#FFFFFF" width="215.335" height="10.667"/>
	</g>
	<g>
		<rect x="8.833" y="387.165" fill="#FFFFFF" width="363.999" height="10.667"/>
		<rect x="388.834" y="387.165" fill="#FFFFFF" width="104" height="10.667"/>
	</g>
	<rect x="8.833" y="409.165" fill="#FFFFFF" width="483.999" height="10.667"/>
	<rect x="8.833" y="431.165" fill="#FFFFFF" width="226.668" height="10.667"/>
	<rect x="247.5" y="431.165" fill="#FFFFFF" width="207" height="10.667"/>
	<rect x="8.833" y="453.165" fill="#FFFFFF" width="483.999" height="10.667"/>
	<rect x="8.833" y="472.165" fill="#FFFFFF" width="483.999" height="10.667"/>
	<g>
		<rect x="120.18" y="494.165" fill="#FFFFFF" width="233.585" height="10.667"/>
		<rect x="8.833" y="494.165" fill="#FFFFFF" width="96.824" height="10.667"/>
		<rect x="366.473" y="494.165" fill="#FFFFFF" width="81.693" height="10.667"/>
	</g>
	<g>
		<rect x="8.833" y="516.165" fill="#FFFFFF" width="222.692" height="10.667"/>
		<rect x="245.445" y="516.165" fill="#FFFFFF" width="202.724" height="10.667"/>
	</g>
	<g>
		<rect x="8.833" y="538.165" fill="#FFFFFF" width="363.999" height="10.667"/>
		<rect x="388.834" y="538.165" fill="#FFFFFF" width="104" height="10.667"/>
	</g>
	<rect x="8.833" y="560.165" fill="#FFFFFF" width="439.334" height="10.667"/>
	<rect x="8.833" y="582.165" fill="#FFFFFF" width="226.668" height="10.667"/>
	<rect x="225.474" y="582.165" fill="#FFFFFF" width="267.358" height="10.667"/>
	<rect x="8.833" y="604.165" fill="#FFFFFF" width="439.334" height="10.667"/>
</g>
</svg>
