<?xml version="1.0" encoding="utf-8"?>
<!-- Generator: Adobe Illustrator 16.0.0, SVG Export Plug-In . SVG Version: 6.00 Build 0)  -->
<!DOCTYPE svg PUBLIC "-//W3C//DTD SVG 1.1//EN" "http://www.w3.org/Graphics/SVG/1.1/DTD/svg11.dtd">
<svg version="1.1" id="Your_Icon" xmlns="http://www.w3.org/2000/svg" xmlns:xlink="http://www.w3.org/1999/xlink" x="0px" y="0px"
	 width="280px" height="280.002px" viewBox="-30 -30 280 280.002" enable-background="new -30 -30 280 280.002"
	 xml:space="preserve">
<g>
	<polygon fill="#FFFFFF" points="107.085,73.046 107.313,73.205 107.343,73.387 107.554,73.514 107.431,73.674 107.362,73.833 
		107.395,74.082 107.525,74.256 107.633,74.082 107.85,73.912 108.154,73.963 108.176,74.149 108.084,74.456 108.121,74.646 
		108.154,74.889 108.106,75.2 108.154,75.475 108.324,75.445 108.62,75.406 108.863,75.359 109.193,75.308 109.523,75.215 
		109.542,75.353 109.523,75.499 109.462,75.804 109.542,75.989 109.767,75.919 110.134,75.954 110.148,76.154 110.134,76.401 
		110.174,76.632 110.003,76.798 109.753,77.082 109.563,77.107 109.216,77.023 109.022,77.001 108.819,77.023 108.968,77.397 
		109.029,77.692 109,77.832 108.819,78.018 108.935,78.141 109.137,78.104 109.316,78.324 109.236,78.483 109.064,78.611 
		108.851,78.834 108.548,79.036 108.518,79.178 108.548,79.424 108.681,79.652 108.883,79.71 108.902,79.508 109.175,79.368 
		109.423,79.676 109.674,79.639 109.892,79.561 110.076,79.48 110.297,79.401 110.643,79.353 110.68,79.583 110.557,79.75 
		110.227,79.811 110.022,79.832 109.75,79.918 109.556,79.963 109.377,80.01 109.16,80.208 109.048,80.42 108.935,80.633 
		108.87,80.882 108.792,81.048 108.627,81.224 108.449,81.332 108.443,81.638 108.531,81.818 108.946,81.711 109.029,81.551 
		109.13,81.228 109.236,81.072 109.423,81 109.694,81.104 109.833,81.079 110.022,81.057 110.26,81.021 110.297,80.712 
		110.436,80.604 110.836,80.619 111.086,80.649 111.279,80.619 111.446,80.441 111.658,80.217 111.794,80.137 111.982,80.118 
		112.229,80.13 112.373,80.118 112.505,80.09 112.927,80.123 113.204,80.09 113.391,80.058 113.566,79.875 113.802,79.841 
		114.021,79.71 114.146,79.59 114.158,79.386 114.05,79.266 113.813,79.3 113.596,79.238 113.605,78.989 113.639,78.834 
		113.639,78.59 113.802,78.569 114,78.537 114.158,78.459 114.304,78.333 114.372,78.141 114.396,77.994 114.383,77.857 
		114.404,77.354 114.118,77.151 113.883,77.146 113.609,77.169 113.431,77.354 113.26,77.63 113.135,77.488 112.934,77.329 
		112.947,77.036 112.886,76.695 112.647,76.499 112.934,76.421 112.799,76.179 112.638,76.108 112.472,75.981 112.229,75.971 
		112.15,75.787 112.026,75.615 111.524,75.215 111.182,75.208 111.07,75.08 110.984,74.889 110.951,74.646 110.836,74.49 
		110.615,74.061 110.313,74.061 110.26,73.934 110.134,73.75 109.931,73.731 109.767,73.711 109.75,73.508 109.812,73.315 
		109.793,72.92 109.787,72.772 109.912,72.658 110.022,72.453 110.208,72.333 110.16,72.094 110.167,71.992 110.174,71.794 
		110.16,71.702 110.148,71.646 110.006,71.384 109.767,71.367 109.564,71.392 109.423,71.408 109.064,71.566 108.87,71.595 
		108.594,71.639 108.383,71.624 108.35,71.384 108.356,71.089 108.582,70.963 108.548,70.774 108.808,70.57 108.83,70.141 
		108.786,69.996 108.531,69.935 108.231,70.034 107.986,70.254 107.85,70.27 107.718,70.18 107.533,70.192 107.565,70.384 
		107.541,70.534 107.379,70.792 107.33,71.034 107.373,71.278 107.297,71.489 107.065,71.595 107.099,71.818 107.029,71.974 
		107.099,72.229 107.106,72.248 107.188,72.44 107.178,72.513 107.146,72.753 	"/>
	<polygon fill="#FFFFFF" points="107.619,76.199 107.671,75.941 107.459,75.72 107.33,75.605 107.214,75.475 107.053,75.353 
		106.868,75.38 106.802,75.623 106.48,75.774 106.532,75.634 106.579,75.514 106.563,75.323 106.395,75.157 106.126,75.396 
		105.89,75.422 105.697,75.406 105.618,75.575 105.538,75.727 105.52,75.871 105.582,76.016 105.618,76.199 105.43,76.276 
		105.271,76.499 105.209,76.705 104.962,76.75 104.771,76.78 104.592,76.853 104.625,77.001 104.643,77.13 104.689,77.508 
		104.317,77.62 104.363,77.91 104.393,78.098 104.512,78.237 104.657,78.214 104.843,78.192 105.022,78.054 105.188,77.883 
		105.344,78.001 105.22,78.117 105.199,78.276 105.22,78.415 105.155,78.622 105.075,78.772 104.909,79.246 104.769,79.604 
		104.465,79.894 104.643,80.01 104.725,80.208 104.87,80.272 104.909,80.463 105.039,80.438 105.177,80.333 105.394,80.232 
		105.571,80.42 105.781,80.485 106.045,80.293 106.198,80.01 106.358,79.811 106.507,79.773 106.791,79.738 106.81,79.583 
		106.816,79.3 107.013,79.266 107.172,79.093 107.238,78.759 107.39,78.522 107.323,78.379 107.172,78.11 107.146,77.826 
		107.099,77.629 107.122,77.445 107.092,77.241 107.099,77.001 107.277,76.78 107.496,76.638 107.702,76.469 107.633,76.332 	"/>
	<polygon fill="#FFFFFF" points="51.829,122.436 51.611,122.224 50.953,122.185 50.198,122.253 49.797,122.111 48.877,122.451 
		48.551,122.826 48.427,122.961 48.233,123.261 48.084,123.568 48.226,123.771 48.58,123.673 48.697,123.568 48.885,123.162 
		49.115,122.85 49.47,122.688 49.862,122.563 50.175,122.817 50.32,123.04 50.494,122.919 50.725,122.875 50.985,123.032 
		51.192,122.903 51.776,123.337 51.917,123.641 52.47,123.548 52.896,123.534 53.083,123.791 53.179,124.146 53.561,124.2 
		53.948,124.272 54.169,124.519 54.054,124.964 53.995,125.189 54.189,125.233 54.871,125.063 55.532,124.785 55.761,124.7 
		56.119,124.694 56.652,124.66 56.362,124.055 55.761,124.1 55.565,124.009 55.23,123.416 54.818,123.488 54.285,123.377 
		54.163,123.219 53.768,123.067 52.451,122.81 	"/>
	<polygon fill="#FFFFFF" points="57.274,125.971 56.793,125.956 56.856,126.362 57.166,126.512 57.633,126.443 58.077,126.387 
		58.084,126.387 58.355,126.34 58.604,126.298 59.392,126.32 59.512,126.498 59.682,126.394 59.803,126.149 59.744,125.786 
		59.928,125.866 60.274,125.944 60.535,125.855 60.893,125.619 61.246,125.513 61.611,125.458 61.93,125.358 61.565,124.904 
		60.725,124.832 60.155,124.555 59.566,124.417 58.808,124.571 58.269,124.801 58.19,125.513 58.5,125.694 58.559,126.017 
		58.305,126.094 58.146,126.13 58.015,126.13 57.575,126.116 	"/>
	<polygon fill="#FFFFFF" points="54.897,126.433 53.626,126.535 53.454,126.933 53.909,127.051 54.16,127.16 54.354,127.27 
		54.577,127.426 54.779,127.263 55.118,127.058 55.23,126.853 55.061,126.632 	"/>
	<path fill="#FFFFFF" d="M110.003,26.01c-46.315,0-83.993,37.682-83.993,83.998c0,46.308,37.678,83.983,83.993,83.983
		c46.309,0,83.986-37.675,83.986-83.983C193.989,63.692,156.313,26.01,110.003,26.01z M158.827,86.231l0.066,0.183l0.039,0.157
		l0.118,0.11l0.093-0.142l0.236-0.065l0.053-0.015l0.179-0.034l0.112,0.025v0.009l-0.007,0.12l-0.105,0.368l0.171,0.319l0.138,0.183
		l0.105,0.182l0.029,0.039l0.109,0.104l0.071,0.145l0.027,0.131l-0.086,0.058l-0.039,0.018l-0.08,0.216l0.14,0.378l0.016,0.274
		l0.05,0.313l-0.027,0.146v0.01l0.048,0.327l0.075,0.135l0.011,0.165l-0.061,0.126l-0.202,0.04l-0.09-0.119l-0.238-0.048
		l-0.165,0.033l-0.216,0.104l-0.184,0.067l-0.142,0.191l-0.17,0.142l-0.396,0.007l-0.416-0.17l-0.104-0.181l-0.153-0.053
		l-0.229-0.033l-0.164-0.106l-0.214-0.049l-0.188,0.049l-0.185,0.016l-0.225-0.087l-0.165-0.04l-0.053-0.087l-0.053-0.103
		l-0.02-0.143l-0.013-0.094l-0.204-0.284l-0.11-0.181l-0.22-0.167l-0.046-0.271l0.093-0.169l0.145-0.302l0.028-0.118l0.069-0.365
		l0.048-0.208l0.014-0.21l0.124-0.176l-0.033-0.229l-0.053-0.266l0.017-0.192l0.241-0.039l0.151-0.066l-0.066-0.107l-0.165-0.102
		l-0.155,0.033l-0.187-0.174l-0.154-0.206l-0.058-0.083l-0.181-0.263l-0.063-0.08l-0.171-0.095l-0.268-0.238l-0.166-0.084
		l-0.146-0.138l-0.047-0.308l-0.211-0.145l-0.281-0.296l-0.226-0.832l-0.175-0.155l-0.05-0.29l0.085-0.222l-0.17-0.13l-0.211-0.086
		l-0.182,0.092l-0.116,0.101l-0.062-0.178V82.04l0.02-0.392l0.089-0.73l0.04-0.288l0.048-0.437l0.209-0.18l0.126-0.224l0.129,0.094
		l0.262,0.13l0.293-0.366l-0.151-0.053l-0.069-0.155l0.3-0.077l0.132,0.051l0.204,0.087l0.131-0.138l0.022-0.219l0.099-0.11
		l0.524,0.077l0.124-0.029l0.185-0.353l0.006-0.125l0.092-0.235l0.094-0.084l0.224-0.093l0.239-0.028l0.106,0.224l0.221,0.125
		l0.092,0.056h0.228h0.088l0.273-0.042l0.152,0.199l0.188,0.123l0.44,0.114l0.363,0.053l0.055,0.314l0.109,0.261l0.161,0.22
		l0.165,0.122l0.155,0.177l0.025,0.186l-0.046,0.246l-0.172,0.189l-0.257,0.118l-0.258-0.077l-0.16-0.098l-0.208-0.009l-0.237-0.077
		l-0.138-0.033l-0.069-0.015h-0.229h-0.056l-0.099,0.203l-0.079,0.189l-0.362,0.046c0,0-0.008-0.031-0.105,0.051
		c-0.107,0.095-0.107,0.095-0.107,0.095l0.027,0.435l0.231,0.175l-0.03,0.153l-0.392,0.018l-0.459,0.106l0.129,0.301l0.3,0.115
		l0.299,0.141l0.105,0.266l0.112,0.121l0.258,0.191l0.222,0.108l0.17,0.072h0.115l0.239,0.017l0.153-0.017l0.246,1.033h0.151
		l0.139-0.039l0.046-0.015l0.112-0.137l0.072-0.078l0.054-0.066l0.136,0.107l0.166,0.007l0.306,0.235c0,0-0.016,0.125,0.089,0.224
		c0.08,0.106,0.219,0.25,0.219,0.25l0.22,0.086l0.208,0.077l-0.086,0.215l-0.115,0.053l-0.007,0.234l-0.069,0.153l-0.038,0.1
		l-0.159,0.078l-0.152-0.031l-0.242-0.036l-0.195-0.141l-0.108-0.048l-0.086-0.025l-0.095-0.024l-0.033,0.05l-0.138,0.253
		l-0.109,0.2L158.827,86.231z M83.659,34.143l0.017-0.023c0.358-0.125,0.721-0.247,1.081-0.367l-0.166,0.137l-0.025,0.018
		l-0.264,0.212l-0.151,0.024l-0.524,0.066L83.659,34.143z M110.003,190.317c-37.622,0-69.186-25.862-77.919-60.771l0.155,0.092
		l0.362,0.426l0.731,0.365l0.625,0.303l0.405,0.115l0.51,0.222l0.725,0.361l0.487,0.026l0.484,0.112l0.54,0.316l0.955,0.053
		l0.631,0.176l0.605-0.368l0.363-0.265l1.498-0.07l0.287-0.007l0.108-0.016l0.346,0.329l0.409,0.155l0.286,0.619l0.682,0.181
		l0.643,0.289l0.29,0.03l0.945,0.541l0.523-0.262l0.478-0.085l0.885,0.164l0.089,0.569l0.481,0.007l0.46,0.52l0.283-0.154
		l0.129,0.116l0.181,0.13l0.023,0.019l0.52,0.378l0.047,0.28l-0.267,0.142l-0.112,0.494l0.385,0.724l0.379-0.065l0.431,0.211
		l0.514,0.307l0.303,0.635l0.446,0.15l0.156,0.047l0.198,0.092l0.103,0.047l0.405-0.122l0.714,0.536l0.291,0.06l0.826-0.33
		l-0.049-0.284l-0.333-0.325l0.327-0.346l0.48-0.065l0.503,0.215l0.291,0.053l0.154,0.353l0.072,0.475l0.165,0.463l0.477,0.023
		l0.182,0.546l0.078,0.469l0.08,0.559l0.099,0.574l-0.139,0.381l0.003,0.685l0.431,0.316l-0.485,0.556l-0.318,0.436l-0.23,0.419
		l0.107,0.573l-0.44,0.54l-0.293,0.424l-0.331,0.33l0.373,0.524l-0.068,0.229l-0.133,0.373v0.032l-0.006,0.556l-0.132,0.393
		l-0.006,0.583l0.079,0.566l0.155,0.462l0.333,0.045l0.131,0.363l-0.21,0.415l-0.352,0.362L54.832,151l0.181,0.546l0.155,0.458
		l0.448,1l0.529,0.387l0.543,0.315l0.442,0.406l0.247,0.347l0.533,0.396l0.642,0.974l0.063,0.131l0.122,0.258l0.1,0.228l0.411,0.82
		l1.074,1.943l0.796,1.508l0.306,0.724l0.604,0.186l0.549,0.396l0.29,0.218l0.145,0.104l0.129,0.04l0.768,0.211l0.543,0.388
		l0.618,0.206l0.352,0.268l0.393,0.283l0.108,0.33l0.297,0.956l0.368,0.605l0.108,0.764l0.044,0.862l0.079,1.139l0.079,0.469
		l-0.202,0.704l0.05,0.39l0.388,1.092l0.07,0.56l-0.115,0.441l-0.014,0.065l-0.102,0.205l-0.105,0.196l0.056,0.376l0.177,0.56
		l-0.076,1.363l-0.204,0.592l0.029,0.151l0.046,0.291v0.033l0.444,0.414l0.091,0.469l-0.191,0.77l-0.052,0.224l0.029,0.093
		c0.412,0.249,0.81,0.493,1.211,0.751c3.592,2.146,7.338,4.011,11.231,5.59l0.016-0.038l0.123-0.258l0.046-0.079l0.359-1.402
		l-0.188-0.554l-0.415-0.23l-0.07-0.526v-0.032l-0.272-0.441l-0.007-0.008l-0.639-0.467l-0.494-0.685l0.072-0.797l0.313,0.236
		l0.319,0.726l0.497,0.118l0.34,0.335l0.478,0.014l0.556-0.171l1.12-0.164l0.312-0.566l0.136-0.237l0.513-0.955l0.152-0.264
		l0.096-0.177l0.092-0.6l-0.01-0.764l0.557-0.765l0.168-0.743l0.054-0.271l0.546,0.845l0.093,0.144l0.013-0.054l0.072-0.31
		l0.08-0.334l0.098-0.686l0.171-0.804l0.408-0.454l0.298-0.527l-0.062-0.368l-0.076-0.56l-0.101-0.664l-0.251-1.015l0.135-0.403
		l0.302-0.445l0.251-0.317l0.471-0.651l0.652-0.646l0.208-0.196l0.072-0.06l0.705-0.31l0.23-0.513l0.521-0.258l0.975-0.639
		l0.661-0.02l0.126-0.48l-0.017-0.771l0.29-1.192l0.448-0.842l0.318-1.106l-0.059-0.468l0.089-0.508l0.029-1.159l-0.21-0.737
		l0.082-0.988l0.017-0.171l-0.026-0.095l-0.205-0.833l0.254-1.489l0.366-0.043l0.102-0.028l0.08-0.278l0.115-0.427l0.092-0.58
		l0.106-0.586l0.467-0.756l0.744-0.778l0.073-0.767l0.01-0.018l0.046-0.282l0.165-0.808l-0.25-1.6l-0.547-0.497l-0.227-0.829
		l-0.626-0.198l-0.725,0.217l-0.764-0.658l-1.015-0.907l-0.946-0.125l-0.043-0.007l-0.244,0.033l-0.5,0.065l-0.998-0.218
		l-0.883-0.145l-0.194,0.609l-0.537-0.419l-0.817-0.831l-0.711-0.281l-0.817-0.243l-1.037,0.038l-0.493,0.574l-0.125-0.847
		l-0.435-0.316l-0.625,0.279l-0.527,0.957l0.076,0.473l-0.401-0.053L79,144.336l-0.092-0.651l0.132-0.896l0.84-0.315l0.023-0.478
		l-0.069-0.491l-0.452-0.402l0.19-0.605l-0.428-0.221l-0.207-0.835l-0.643-1.032l-0.671-0.592l-0.755-0.553l-1.128-0.41
		l-0.421-0.228l-1.832,0.374l-0.279,0.052h-0.022l-0.563-0.486l-0.496-0.128l-0.533,0.278l-0.093-0.566l-0.011-0.578l-0.193-0.237
		l-1.024-0.434c0,0-0.646,0.279-0.78,0.018c-0.141-0.263-0.052-0.376-0.052-0.376l0.036-0.381l-0.428-0.229l-0.503-0.224
		l-0.524-0.298v-0.243l-0.003-0.266v-0.156l-0.363,0.151l-0.58,0.24l-0.506,0.222l-0.221,0.499l-0.773,0.034l-0.404-0.226
		l-0.672,0.102l-0.56,0.077l-0.708,0.402l-0.253-0.435l-0.523-0.31l-0.632-0.29l-0.488-0.118l0.063,0.46l-0.427,0.356l-0.438,0.362
		l0.063,0.382l0.03,0.171l0.05,0.069l0.322,0.451l-0.062,0.368l-0.033,0.229l-0.174,0.029l-0.213,0.019l-0.363-0.508l-0.095-0.658
		v-0.579l-0.175-0.551l0.083-0.154l0.187-0.36l0.175-0.33l-0.257,0.033l-0.284,0.053l-0.022,0.007l-0.234,0.329l-0.333,0.328
		l-0.444,0.364l-0.355,0.157l-0.886,0.511l-0.224,0.417l-0.096,0.584l0.181,0.557l-0.665,1.349l-1.304-1.033l-0.656-0.582
		l-0.735,0.305l-0.488,0.561l-0.636,0.28l-0.825,0.063l-0.708-0.694l-0.402-0.563l-0.457-0.646l-0.32-0.812l-0.006-0.016
		l0.006-0.964l0.01-1.671v-0.232v-0.191l-0.253-0.468l-0.593-0.261l-0.231-0.089h-0.092l-1.251,0.027l-0.647,0.184l-0.521,0.16
		l-0.452,0.152l-0.127,0.043l-0.696-0.079l0.023-0.131l0.046-0.225l0.26-1.426l-0.059-0.952l0.478-0.649l-0.28-3.053l-0.747,0.13
		l-0.906,0.343l-0.513,0.445l-0.268,0.723l0.09,0.654l-0.336,0.91l-0.527,0.371l-0.557,0.185l-0.435,0.261l-0.3,0.524l-0.423,0.184
		l-0.288,0.113l-0.463,0.067l-0.116,0.022l-0.029-0.064l-0.123-0.276l-0.003-0.014l-0.807-0.356l-1.919-2.403l-0.158-0.928
		l-0.123-0.862l-0.381-1.476l0.132-0.797l0.324-0.418l-0.101-0.667l-0.408-0.895l-0.022-0.78l0.354-0.811l0.894-0.512l0.079-0.597
		l0.386-0.629l0.148-0.06l0.279-0.124l0.311-0.125l0.724-0.299l0.642-0.104l0.884,0.064l0.285,0.523l0.416-0.355l0.781,0.071
		l0.339-0.335l-0.165-0.447v-0.667l0.755-0.117l0.829-0.132l0.54-0.27l0.632,0.378l0.55,0.097l0.046,0.01l0.241-0.032l0.326-0.051
		l0.353-0.158l0.452,0.322l0.46,0.501l0.261,0.435l0.461,1.192l0.088,0.567l0.452,0.145l0.07,0.473l0.503,0.47l0.421,0.803
		l0.378-0.052l0.138-0.316l0.125-0.501l-0.127-0.851l-0.339-0.901l-0.431-0.897l-0.104-0.742l-0.462-0.517l-0.104-0.647l0.053-0.883
		l0.057-0.965l0.533-0.855l0.316-0.426l1.156-1.244l0.481-0.642l0.493-0.553l0.054-0.311l0.578-0.573l-0.294-0.714l-0.27-0.446
		l-0.629-0.387l-0.086-0.568l-0.28-0.525l0.017-0.488l-0.082-0.559L51.437,104l0.087-0.229l0.173-0.467h0.672l-0.312,0.434
		l-0.033,0.095l-0.079,0.229l-0.027,0.082l0.098,0.656l0.321,0.236l0.521,0.215l0.197-0.609l0.141-0.426l0.054-0.175l-0.054-0.062
		l-0.326-0.451l0.259-0.248l0.462-0.151l0.236-0.428l0.03-0.404l0.019-0.282l0.003-0.092l0.685-0.581l-0.586-0.007l0.491-0.655
		l0.362-0.158l0.145-0.063l0.276-0.13l0.474-0.229l0.467-0.067l0.043-0.394l-0.158-0.345v-0.681l-0.105-0.673l0.491-0.541
		l0.554-0.191l0.493-0.449l0.513,0.197l0.353-0.247l0.132-0.402l-0.106-0.656l0.747-0.216l0.448-0.158l0.27-0.222l0.129-0.315
		l0.351-0.345l0.264,0.535l0.477,0.021l0.238,0.254l-1.094,0.367L59.8,95.935l-0.434,0.446l0.187,0.554l0.333,0.228l0.529,0.313
		l0.468-0.089l0.421-0.436l0.114-0.5l0.386-0.64l0.55-0.174l0.345-0.256l0.547-0.846l-0.777-0.079l-0.77,0.12l-0.566-0.489
		l-0.323-0.333l-0.394-0.71l-0.386-0.618l-0.994-0.222l0.022-0.482l0.382,0.033L60.006,91l0.06-0.298l-0.145-0.365l-0.373-0.428
		l-0.658,0.104l-1.063,0.55l-0.589,0.558l-0.849,0.728l-0.546,0.845l0.01-0.486l0.335-0.999l0.528-0.387l0.42-0.452l0.283-0.512
		l0.741-0.878l1.761-0.373l0.841-0.221l0.537-0.269l0.823,0.347l0.998-0.444l0.5-0.458l0.833-0.799l-0.079-0.467l0.639-0.293
		l0.814-0.314l0.566-0.769l-0.073-0.459l-0.116-0.748l-0.625-0.29L65.092,83.3l-0.817,0.417L62.876,84.6l0.431-0.357l0.438-0.837
		l0.563-0.174l0.327-0.338l-0.168-0.454l-0.326-0.343l-0.399-0.03l-1.32,0.196l-0.394-0.706l-0.628-0.372l-0.445-0.43l-0.468-0.409
		l0.61-0.383l-0.06-0.376l-0.584-0.097l-0.059-0.486l-0.478-0.396l-0.319-0.328l-0.547,0.175l0.215-0.52l-0.096-0.559l-0.339-0.352
		l-0.514-0.187l-0.387-0.624l-0.094-0.631l-0.016-0.115L57.562,75.5h-0.025l-0.089,0.483l-0.019,0.112l-0.01,0.023l-0.356,0.718
		l-0.454,0.26L56.386,77.4l-0.425,0.459l-0.53,0.188l-0.372,0.136l-0.36-0.517l-0.316-0.156l-0.763,0.044l-0.228-0.849l-0.012-0.492
		l-0.009-0.257v-0.014l0.017-0.581l0.025-0.38l-0.56,0.086l-0.145-0.261l-0.329-0.342l-0.53,0.366l-0.363,0.06l-0.394-0.624
		L50.35,73.95l-0.072-0.037l-0.185-0.09l-0.655-0.349l-0.632,0.574l-0.988-0.117l-0.957,0.007l-0.9,0.27l0.123,0.812l0.125,0.782
		l0.089,0.667l0.432,0.083l0.263,0.909l-0.19,0.449l-0.744,0.511l-0.175,0.71l0.072,0.06l0.191,0.167l0.688,0.585l0.678,0.98
		l0.432,0.366l0.24,0.204l0.136,0.12l-0.096,1.247l-0.269,0.859l-0.324,0.25l-0.338,0.271l-0.184,0.156l-0.593,0.625l0.25,0.781
		l0.167,0.269l0.206,0.357l0.01,0.048l0.111,0.76l-0.056,1.369l-0.319,0.586l-0.177-0.017l-0.285-0.04l-0.51-0.059l-0.629-0.58
		l-0.243-0.649l-0.547-0.532l-0.118-0.672l-0.119-0.796l-0.139-0.938l-0.793-0.34l-1.742,0.262l-0.922-0.31l-0.279-0.081
		l-0.795-0.268l-0.642-0.57l-0.217-0.104l-0.257-0.118l-0.416-0.189l-0.831-0.152l-0.856-0.277l-0.757,0.385L35,82.689l-0.389-0.452
		c2.559-6.94,6.062-13.428,10.329-19.314l0.278,0.155l0.013-0.322l0.236-0.158l0.271,0.078l0.43,0.318l0.156-0.215l0.234,0.346
		l0.079,0.438l0.471,0.136l-0.17,0.594l0.154,0.168l0.236,0.266l0.238-0.098l0.29-0.169l0.219-0.288l0.353-0.198l0.056,0.387
		l0.066,0.444h0.009l0.402,0.188l0.272,0.083l0.052,0.439l0.221,0.55l0.231,0.29l-0.425,0.115l0.063,0.378l0.089,0.231l0.159,0.175
		l-0.218,0.226l-0.224,0.293l-0.291,0.418l-0.29,0.373l0.023,0.448l1.132,0.771l-0.144,0.349l-1.034,0.342l-0.402,0.203
		l-0.956,0.007l-0.754,0.424l-0.2,0.115l-0.027,0.078l-0.346,0.87l0.086,0.493l0.313,0.089l0.299,0.204l0.733-0.246l0.438-0.514
		l0.241-0.03l0.047-0.007l0.272-0.044l0.162-0.077l0.022-0.006l-0.151-0.56l0.197,0.102l0.182-0.023l0.371-0.13l0.159,0.237
		l0.382,0.016l0.224,0.207l0.421,0.189l0.141,0.113l0.162,0.15l0.228,0.209l0.134,0.122l0.508-0.066l0.208,0.162l-0.299,0.235
		l-0.104,0.078l0.082,0.204l0.011,0.032l0.197,0.023l0.079,0.007l0.501-0.007l0.184-0.086l0.064-0.027l0.562-0.084l0.794-0.175
		l0.593,0.036l0.567-0.088l0.512,0.052l0.604-0.152l-0.034-0.33l-0.391,0.072l-0.373-0.4l-0.517-0.04l-0.685-0.341l-0.632-0.363
		l0.24-0.096l0.561-0.151l0.351-0.183l0.442,0.387l0.788-0.26l0.732,0.215l-0.136-0.55l0.144-0.347l-0.083-0.446l-0.23-0.278
		l-0.313-0.007l-1.25-0.511l-0.362-0.4l-0.269-0.407l-0.209-0.153l0.118-0.859l-0.049-0.431l0.533-0.215l0.343,0.467l0.266,0.208
		l0.306,0.275l0.518,0.058l0.062,0.306l0.313,0.061l0.228,0.223l0.291,0.28l0.662,0.029l0.431-0.061l0.024-0.258l-0.049-0.694
		l0.423-0.184l0.069-0.344l-0.036-0.308l0.939-0.137l-0.019-0.961l-0.181-0.298l-0.35-0.261l-0.504,0.063l-0.642,0.435l-0.197-0.032
		l-0.244,0.031l-0.441,0.072l-0.504-0.749l-0.322-0.529l-0.307,0.169l-0.157,0.215l-0.208,0.285l-0.545,0.223l-0.311-0.407
		l-0.167-0.196l-0.21-0.223l-0.076-0.09l-0.887-0.179l-0.264-0.23l-0.072-0.42l0.257-0.053l0.263-0.352l-0.194-0.419l0.49-0.073
		l-0.402-0.259l-0.52,0.024l-0.247-0.354l0.29-0.246l0.346-0.168v-0.45l-0.472-0.19l-0.016,0.259l-0.452,0.008l-0.402-0.512
		l-0.474-0.073l-0.174-0.022l-0.158,0.22l-0.112,0.504l-0.029,0.158l-0.028-0.066l-0.108-0.363l-0.128-0.44l-0.248-0.27
		l-0.296-0.218l-0.241-0.329c0,0-0.448,0.057-0.616,0.079c-0.19,0.026-0.115,0.092-0.115,0.092l-0.626,0.088l-0.168-0.229
		l-0.52,0.342l-0.037-0.268l0.007-0.182l0.008-0.156c2.577-3.201,5.382-6.205,8.414-8.973l0.469-0.077l0.876,0.164l0.54,0.385
		l0.115,0.113l0.132,0.15l0.145-0.02l0.221-0.035l0.375-0.156l0.31,0.145l0.142,0.36l0.128,0.269l1.051,0.431l0.593,0.148
		l0.088,0.017l0.049,0.329l0.023,0.145l-0.104,0.596l0.499,0.016l0.16,0.451l0.521,0.325l0.072,0.476l0.527,0.299l0.069,0.462
		l-0.253,0.229l-0.121,0.505v0.474l-0.063,0.302l0.049,0.274l0.475,0.022l0.355-0.153l0.441-0.258l0.264,0.014l0.237,0.017
		l0.079-0.017l0.773-0.132l0.126,0.274l0.385,0.042l0.497,0.015l0.299,0.145l-0.138,0.41l0.066,0.368l0.246,0.353l-0.052,0.289
		l-0.468,0.087l-0.307-0.146l-0.523-0.225l-0.879-0.05l-0.747,0.117l-0.04,0.019l-0.375,0.141l-0.043,0.01l0.036,0.008l0.269,0.087
		l0.399,0.101l0.223,0.237l0.788,0.074l0.23,0.248l0.402,0.133l0.403,0.15l0.374-0.061l0.266-0.144l0.291-0.026l0.204,0.24
		l0.086,0.459l0.162,0.469l-0.021,0.573l-0.352,0.05l0.072,0.572l-0.017,0.473l-0.382-0.033L66.2,62.455l-0.329,0.336l-0.059,0.299
		l0.306,0.149l0.771-0.116l0.365-0.066l0.169,0.358l0.131,0.37L67.1,63.941l-0.488-0.017l-0.395-0.122l-0.458,0.244l-0.412,0.458
		l0.083,0.473l0.366,0.415l-0.247,0.431l0.103,0.554l0.309,0.155l0.13,0.259l0.378-0.055l0.53,0.299l0.184,0.647l-0.03,0.387
		l-0.147,0.308l0.243,0.359l0.405-0.444l0.06-0.295l0.275-0.157l0.367-0.045l-0.22,0.51l-0.339,0.248l-0.264,0.227l0.274,0.453
		l0.405,0.221l0.065,0.366l0.159,0.274l0.025-0.008l0.296-0.046l0.039-0.008l0.238,0.352l0.267,0.192l0.06,0.047l0.032,0.213
		l0.05,0.254l0.645-0.459l0.036-0.018l0.007,0.01l0.148,0.335l0.359,0.426l0.071,0.476l0.317,0.127l0.138,0.373l0.234,0.352
		l0.546-0.271l0.225-0.423l0.342-0.247l0.163,0.379l0.354,0.412l0.668-0.11l0.472,0.024l0.246,0.261l0.299,0.145l0.294,0.634
		l0.225-0.223l0.269-0.237l0.053-0.301l-0.151-0.274l-0.319-0.328l0.201-0.424l0.309-0.618l0.04-0.393l0.132-0.299l0.007-0.684
		v-0.48l0.105-0.168l0.151-0.246l0.108-0.104l0.125-0.125l0.164-0.314l0.128-0.295l-0.063-0.392l-0.01-0.762l0.046-0.387
		l0.099-0.603l0.04-0.276l0.342-0.261l0.125-0.487l0.827-0.222l0.44-0.368l0.458-0.158l0.144,0.375l0.389,0.023l0.237-0.323
		l0.208-0.038l0.273-0.042l0.076-0.016l0.421-0.357l0.313-0.512l0.131-0.409l0.254-0.331l0.341-0.243l0.62-0.961l0.432-0.265
		l-0.054-0.364l-0.094-0.666l0.325,0.248l0.297,0.046l0.534-0.28l0.46-0.15l0.185-0.038l0.392,0.038l0.458-0.165l0.273-0.047
		l0.369-0.146l0.256-0.148l0.261-0.239l0.175-0.121l0.396,0.048l0.451-0.076l0.21-0.604l0.534-0.274l0.243-0.33l0.392,0.049
		l0.21-0.421l0.655-0.194l0.461-0.077l0.053-0.299l0.227-0.418l0.553-0.746l-0.744,0.112l-0.494-0.018l-0.603-0.301l-0.465,0.08
		l-0.609,0.483l-0.366,0.046l0.161-0.787l0.053-0.301l-0.23-0.255l0.23-0.405l-0.322-0.244l-0.278,0.036h-0.589l-0.474,0.082
		l-0.428-0.326l0.283-0.046l0.372-0.069l0.29-0.044l0.277-0.039l0.359-0.063l0.302,0.06l0.393,0.042l0.312,0.137l0.326,0.236
		l0.431,0.343l0.152,0.255l0.408,0.125l0.384,0.126l0.412,0.15l0.468,0.023l0.309,0.037l0.246-0.216l-0.052-0.395l-0.161-0.445
		l-0.534-0.321l-0.35-0.418l-0.928-0.345l-0.418-0.315l-0.412-0.122l-0.335-0.239l-0.299-0.156l-0.359,0.156l-0.366,0.056
		l-0.488-0.028l-0.122-0.205l-0.151-0.245l0.029-0.025l0.214-0.278l0.272-0.142l0.339-0.256l0.448-0.264l0.338,0.449l0.316,0.136
		l0.244,0.254h0.052l0.33,0.039l0.129,0.229l0.267,0.471l0.434,0.229l0.296,0.047l0.386,0.131l0.27-0.131l-0.23-0.259L90.4,52.141
		l0.432-0.263l-0.251-0.26l-0.062-0.067l-0.535-0.216l-0.43-0.325l-0.652-0.378l0.688-0.101l0.371,0.04l0.566-0.084l0.331-0.366
		l0.456-0.145l0.221-0.514l-0.362-0.424l-0.9,0.428v-0.687l0.743-0.191l-0.062-0.372l-0.042-0.281l-0.046-0.288l-0.56-0.489
		l0.371-0.061l0.316,0.051l0.408,0.236l0.216-0.519l-0.058-0.373l-0.708-0.851l-0.438,0.255l-0.481,0.072l0.254-0.328l0.219-0.405
		l-0.064-0.295l-0.06-0.169l-0.072-0.188l1.093-0.015h0.257l0.213,0.156l0.472-0.079l0.355-0.23l-0.056-0.082l-0.181-0.25
		l-0.145-0.213l-0.244-0.34l-0.366,0.145l-0.557,0.084l-0.336-0.237l0.576-0.667l-0.698-0.087l-1.149-0.014c0,0,0,0-0.046-0.286
		c-0.036-0.275,0.385,0.039,0.385,0.039l0.687-0.094l0.111-0.41l0.132-0.405l0.566-0.656l-0.129-0.854l1.173-0.554l-0.046-0.286
		l-0.831-0.359l-0.645,0.105l-0.541,0.276l-0.175-0.473l0.425-0.337l0.658-0.101l0.42,0.208l1.318-0.191l0.487-0.659l0.299-0.289
		l0.217-0.207l0.072-0.066l0.316-0.328l0.431-0.364l0.313-0.428l0.701,0.085l0.539-0.75l-0.596-0.206l-1.124,0.178l-0.309,0.05
		l-0.197,0.022L93.34,35.52l-1.59,0.237l-0.533,0.38l-0.652,0.099l-0.653,0.107l-0.484-0.026l-0.546,0.271l-0.488,0.552l-0.3,0.448
		l-0.632,0.362l-0.099,0.017l-0.324,0.048l-0.417,0.067l-0.338-0.322l0.44-0.267l0.343-0.237l0.263-0.14l0.248-0.319l0.312-0.444
		l-0.325-0.229l-0.57-0.01l-0.656,0.108L86.219,36.8l-0.895,0.316l-0.622-0.283l-0.51-0.269l-0.023-0.012l-0.366,0.012l-0.586,0.024
		l-1.376,0.415l-0.862,0.116l-1.257,0.584l0.019-0.223l0.007-0.266l0.721-0.395l0.253-0.09l0.741-0.259l1.604-0.231l1.35-0.246
		l0.471-0.092l1.734-0.312l1.159,0.017l0.649-0.103l0.419-0.447l0.096-0.596l-0.79-0.16l-0.292,0.04l-0.743,0.022l-0.231-0.1
		l-0.098-0.054l-0.254-0.004h-0.225l-0.579-0.021l-0.151-0.361l-0.099-0.101l-0.168-0.156c7.777-2.512,16.069-3.887,24.686-3.887
		c18.785,0,36.055,6.468,49.729,17.276l0.1,0.615l0.261,0.603l-0.426,0.141l-0.381-0.2l-0.192,0.648l-0.382-0.112l-0.22-0.319
		l-0.139-0.356l-0.622,0.198l-0.362,0.042l-0.014,0.466l-0.651-0.173l-0.39-0.118l-0.443,0.054l-0.319,0.318l-0.083,0.267
		l-0.063,0.327l-0.021,0.071l-0.61,0.083l-0.368,0.061l-0.27-0.041l-0.283-0.051l0.41-0.257l0.144-0.286l-0.454-0.009l-0.229-0.336
		l-0.283-0.054l-0.887,0.771l-0.467,0.429l-0.463,0.08l-0.324,0.229l-0.481,0.344l-0.262,0.143l-0.342,0.122l-0.021,0.039
		l-0.229,0.173l-0.472,0.367l-0.02,0.459v0.55l-0.479,0.435l-0.25,0.218l-0.344,0.136l-0.369-0.11l-0.426-0.394l-0.093-0.531
		l0.237-0.319l0.48-0.433l-0.185-0.611l-0.338-0.491l-0.677-0.156l-1.064,0.156l-0.019,0.461l0.207,0.237l-0.065,0.738l-0.026,0.364
		l0.079,0.537l-0.095,0.647l-0.09,0.56l-0.111,0.468l-0.765-0.25l-0.209-0.237l-0.283-0.048l-0.35,0.295l-0.203,0.184l-0.079,0.073
		l-0.311,0.404l-0.267,0.589l0.04,0.272l0.347,0.487l0.315,0.316l-0.44,0.07l-0.501-0.291l-0.389-0.203l-0.56-0.028l-0.39-0.209
		l-0.342,0.053l-0.019,0.555l0.071,0.527l0.298,0.144l0.44,0.485l-0.092,0.458l-0.533,0.17l-0.43,0.072l-0.695-0.27l-0.216-0.243
		l-0.332-0.391l-0.35-0.492l-0.185-0.615l-0.156-0.425l-0.476-0.197l-0.482-0.195l-0.574-0.196l-0.319-0.299l-0.356-0.591
		l-0.56-0.642l1.001,0.579l0.441-0.07l0.293,0.215l0.477,0.141l0.742,0.053l0.449,0.017l0.454,0.018l0.831,0.062l0.486,0.204
		l0.594-0.283l0.447-0.611l0.327-0.324l0.324-0.293l0.211-0.193l0.18-0.162l-0.291-0.68l-0.172-0.527l-0.457-0.007l-0.487-0.294
		l-0.142-0.105l-0.487-0.353l-0.244-0.104l-0.349-0.158l-0.468-0.204l-1.317-0.255l-0.354,0.055l-0.758-0.162h-0.533l-0.715,0.107
		l-0.301-0.139l-0.659-0.161l0.23-0.322l-0.4-0.308l-0.277,0.056l-0.437,0.06l-0.37,0.059l-0.736,0.382l-0.328-0.316l0.231-0.212
		l0.151-0.206l0.514-0.259l-0.647-0.63l-0.268,0.046l-0.188-0.154l-0.399-0.211l-0.045,0.283l0.045,0.34l-0.422,0.261l-0.328-0.396
		l0.286-0.52l-0.129-0.239l-0.303-0.143l-0.221,0.228l-0.023,0.46l-0.124,0.456l-0.036,0.282l-0.253,0.13l-0.224-0.243l-0.047-0.254
		l-0.185-0.079l-0.046,0.378l-0.198,0.387l-0.044,0.057l-0.113,0.158l-0.011,0.124l-0.021,0.244l-0.215,0.314l-0.152-0.437
		l-0.05-0.265l0.161-0.238l0.057-0.077l0.069-0.207l0.06-0.173l-0.227-0.237l-0.158-0.05l-0.229-0.072l-0.192-0.04l-0.072-0.012
		l-0.286,0.032v0.466l-0.158,0.207l-0.346,0.149l-0.041,0.357l-0.229,0.229l-0.341,0.143l-0.278,0.043l-0.596-0.284l-0.316-0.063
		l-0.147-0.039l0.185,0.609l-0.132,0.209l-0.29-0.071l-0.389-0.099l0.164,0.43l-0.276,0.044l-0.33,0.139l-0.314,0.404l-0.271-0.051
		l-0.208,0.414l-0.328,0.216l-0.229,0.408l-0.197,0.301l-0.02,0.553l-0.186,0.646l-0.384,0.334l-0.32,0.323l-0.229,0.029
		l-0.119,0.019l0.161,0.425l0.142,0.347l-0.021,0.149l-0.019,0.138l-0.241,0.304l-0.275,0.497l-0.269,0.032l-0.243,0.232
		l-0.112,0.459l-0.474,0.563l-0.053,0.072l-0.114,0.479l-0.327,0.315l-0.092,0.469l-0.335,0.232l-0.237,0.134l-0.296,0.036
		l-0.357,0.598l-0.118,0.387l-0.316,0.232l-0.039,0.357l0.368,0.133l0.27-0.038l-0.21,0.379l-0.003,0.016l-0.401,0.253l-0.367,0.044
		l-0.084-0.229l-0.054-0.115l-0.268-0.046l-0.272,0.046l-0.342,0.141l-0.054,0.065l-0.176,0.238l0.058,0.055l0.182,0.179
		l0.188,0.145l-0.69,0.308l0.047,0.348l-0.26,0.049l-0.347,0.057l-0.158,0.287l0.039,0.261l-0.141,0.029l-0.274,0.213l-0.111,0.38
		l-0.366,0.07l-0.2,0.283l-0.42,0.254l-0.144,0.29l-0.216,0.407l0.264,0.512l0.07,0.53l0.28,0.586l0.23,0.223l0.678-0.183
		l-0.073,0.744l-0.492,0.25l-0.037,0.365l0.05,0.363l0.362-0.054l0.178,0.519l0.072,0.532l0.48,0.201l0.472,0.099l1.066-0.149
		l0.406-0.348l0.357-0.599l0.604-0.271l0.277-0.402l0.435-0.159l0.348,0.315l0.136,0.429l0.251,0.424l0.022,0.139l0.039,0.277
		l0.022,0.115l0.392,0.667l0.67,0.358l0.299,0.136l0.126,0.24l-0.303,0.417l-0.23,0.216l-0.425,0.152l0.059,0.452l-0.441,0.06
		l-0.289-0.04l0.088,0.537l0.322,0.397h0.566l0.12-0.285l-0.057-0.372l0.134-0.379l0.344-0.149l0.04,0.258l0.221,0.255l0.604-0.182
		l0.234-0.229l0.027-0.455l0.21-0.387l0.31-0.239l0.89-0.22l0.277-0.586l-0.079-0.446l-0.087-0.622l0.1-0.555l0.004-0.151
		l0.004-0.284l0.007-0.119l-0.071-0.36l0.057-0.275l0.349-0.06l0.271-0.038l0.413-0.237l0.257-0.143l0.14-0.281l-0.14-0.251
		l0.271-0.589l-0.436-0.476l-0.311-0.316l-0.377-0.036l-0.281-0.15l-0.289-0.124l-0.388-1.85l0.149-0.306l-0.058-0.352l0.224-0.208
		l0.334-0.333l0.102-0.56l0.059-0.053l0.164-0.154l0.005-0.286v-0.258l0.325-0.333l0.851-0.298l0.414-0.331l0.104-0.487l0.416-0.33
		l-0.258-0.419l-0.33-0.405l0.291-0.412l0.229-0.306l0.29-0.402l0.152-0.286l0.143-0.301l0.609-0.106l0.227,0.252l0.972-0.146
		l0.504,0.28l0.069,0.435v0.553l-0.494,0.443l-0.368,0.521l-0.205,0.469l-0.29,0.402l-0.182,0.668l-0.467,0.527l-0.043,0.098
		l-0.115,0.281l-0.043,0.118l0.125,0.782l0.078,0.531l0.273,0.61l-0.221,0.391l0.315,0.313l0.144,0.33l0.187-0.028l0.342-0.137
		l0.27,0.053l-0.031,0.29l-0.226,0.385l0.648-0.006l0.124,0.255l0.663,0.252l0.31-0.306l0.21-0.489l0.23-0.217l0.493-0.356
		l0.356-0.13l0.533-0.084l0.437-0.158l0.342-0.054l0.453,0.566l0.382,0.134l0.357-0.053l0.262-0.138l0.298,0.138l-0.207,0.466
		l-0.237,0.332l-0.514,0.088l-0.403-0.137l-0.007,0.548l-0.685,0.198l-0.475-0.103l-0.451,0.063l-0.366-0.13l-0.395,0.51
		l-0.435,0.077l-0.353,0.05l-0.218,0.309l-0.254,0.221l0.06,0.417l0.019,0.105l0.123,0.132l0.108,0.105l0.286,0.14l0.017,1.284
		l-0.318,0.311l-0.223,0.304l-0.386-0.122l-0.13-0.259l-0.2-0.146l-0.336-0.405l-0.52,0.174l0.181,0.6l0.014,0.637l-0.123,0.479
		l-0.203,0.403l-0.145,0.276l0.041,0.265l0.011,0.09l0.032,0.053l0.212,0.265l0.053,0.364l-0.047,0.053l-0.349,0.378l-0.131-0.265
		l-0.268-0.044l-0.122,0.469l-0.039,0.374l-0.092,0.555l-0.399-0.209l-0.236,0.126l-0.204,0.475l-0.246-0.405l-0.205-0.159
		l-0.546,0.088l-0.218,0.307l-0.83,0.489l-0.672,0.272l-0.356,0.158l-0.36,0.125l-0.593,0.022l-0.33-0.225l-0.639-0.175
		l-0.191,0.027l-0.34,0.779l-0.434,0.063l-0.237-0.231l-0.28-0.243l-0.352,0.067l-0.359-0.316l-0.132-0.514l0.418-0.249l0.01-0.363
		l-0.229-0.333l-0.068-0.445l0.167-0.662l0.062-0.278l-0.486-0.293l-0.194-0.505l0.3-0.504l-0.058-0.404l-0.013-0.048l-0.145-0.194
		l-0.092-0.141l-0.138,0.189l-0.237,0.323l-0.008,0.012l-0.224,0.393l-0.276,0.499l-0.586,0.271l0.478,0.099l-0.721,0.763
		l0.257,0.407l0.316,0.321l0.046,0.355l0.156,0.423l0.253,0.323l0.123,0.35l0.228,0.778l0.157,0.438l-0.446,0.716l-0.16,0.008
		l-0.38-0.029l-0.415,0.151l-0.626,0.192l-0.26,0.029l-0.458,0.071l-0.025,0.287l-0.258,0.222l-0.264,0.594l-0.019,0.525v0.568
		l-0.033,0.263l-0.678,0.107l-0.271,0.035l-0.03,0.008l-0.515,0.261l-0.345,0.151l-0.406,0.328l-0.017,0.455l-0.12,0.375
		l-0.239,0.311l-0.516,0.18l-0.123,0.372l-0.335,0.151l-0.436,0.252l-0.236-0.428l-0.533-0.007l-0.11,0.476l0.133,0.346l0.174,0.516
		l-0.32,0.229l-0.381-0.041l-0.346,0.05l-0.358,0.063l-0.557,0.359l-0.258,0.206l-0.138,0.306l0.066,0.438l0.375,0.043l0.658,0.06
		l0.579,0.43l0.774,0.387l0.768,0.407l0.289,0.543l0.139,0.807l0.02,0.339l0.018,0.295l0.032,0.574l0.131,0.891l-0.346,0.36
		l-0.744-0.191l-0.701,0.11l-0.629-0.197l-0.605,0.071l-0.597,0.106l-0.853,0.431l-0.626-0.107l-0.527-0.13l-0.158,0.237
		l-0.263,0.333l-0.574,0.206l-0.265,0.342l0.072,0.397l0.375,0.459l0.263,0.468l0.118,0.79l0.103,0.698l-0.221,0.543l-0.083,0.714
		l0.083,0.606l0.181,0.491l0.25,0.247l0.132,0.91l0.073,0.505l0.723,0.089l0.775-0.327l0.296-0.04l0.366,0.451l0.484,0.333
		l0.498,0.033l0.56-0.395l0.329-0.354l0.61-0.099l0.51-0.062l0.25-0.357l0.132-0.42l0.532-0.489l0.389-0.158l0.146-0.438
		l0.045-0.417l0.429-0.47l0.053-0.323l-0.262-0.365l0.047-0.414l0.314-0.553l0.254-0.452l0.151-0.223l0.359-0.467l0.551-0.389
		l0.556-0.376l0.158-0.232l0.1-0.637l-0.06-0.401l-0.347-0.356l0.156-0.333l0.528-0.266l0.045-0.025h0.236h0.462l0.733,0.2
		l0.53,0.12l0.276-0.352l0.211-0.435l0.48-0.175l0.355-0.459l0.218-0.548l0.712-0.118l0.486,0.643l0.354,0.347l0.503,0.557
		l0.18,0.474l0.476,0.546l0.543,0.222l0.56,0.319l0.558,0.212l0.648,0.213l0.676,0.508l0.589,0.434l0.437,0.232l0.185,0.474
		l0.103,0.704l-0.045,0.411l-0.265,0.351l-0.264,0.153l-0.399,0.048l-0.417,0.164l-0.487,0.275l-0.281-0.053l0.274,0.467
		l0.646,0.203l0.546,0.237l0.33,0.156l0.014-0.521l0.125-0.533l0.487-0.178l0.247-0.334l0.268-0.352l0.223-0.454l0.015-0.604
		l-0.045-0.292l-0.252-0.269l-0.084-0.504l0.668-0.397l0.455,0.324l-0.523-0.729l-0.359-0.363l-0.45-0.231l-0.34-0.26l-0.467-0.441
		l-0.311-0.058l-1.165-0.213l-0.39-0.56l-0.154-0.388l-0.444-0.232l-0.679-0.412l-0.354-0.349l0.033-0.339l0.019-0.283l0.007-0.19
		l-0.271-0.682l0.831-0.424l0.269,1.216l0.016,0.046l0.083-0.053l0.291-0.198l0.422-0.572l0.592,0.523l0.018,0.138l0.043,0.267
		l0.01,0.101l0.164,0.469l0.682,0.209l0.643,0.303l0.801,0.603l1.141,0.13l0.498,0.629l0.228,1.498l0.17,0.387l0.495,0.632
		l0.808,0.488l0.494,0.619l0.435,0.254l0.606,0.006l-0.526,0.485l0.184,0.481l0.504,0.024l0.673-0.302l0.528-0.493v-0.023
		l0.061-0.281l0.151-0.062l0.237-0.106l-0.161-0.378l-0.198-0.048l-0.299-0.077h-0.037l-0.521-0.025l-0.263-0.371l-0.15-0.371
		l0.043-0.411l-0.178-0.483l-0.097-0.489l0.461,0.318l0.339-0.042l0.27-0.04v-0.003l0.155-0.332l-0.164-0.378l0.494-0.073
		l0.919-0.047l0.261,0.472l0.322,0.668l0.271,0.462l0.246,0.265l0.058,0.401l-0.226,0.438l0.164,0.491l0.514,0.03l0.142,0.88
		l0.478-0.062l0.374,0.348l0.637,0.217l0.799,0.49l0.376-0.168l0.229-0.443l0.176-0.333l0.577-0.086l0.662,0.303l0.547,0.226
		l0.605-0.101l0.452-0.372l0.509-0.575l0.548-0.387l0.243,0.871l0.025,0.169l0.051,0.263l0.068,0.466l0.152,0.996l0.104,0.7
		l-0.177,0.846v0.609l-0.054,0.418l-0.228,0.539l-1.498,0.138l-0.376,0.248l-0.425-0.146l-0.587,0.101l-0.647,0.398l-0.296,0.152
		l-0.5,0.087l-0.502-0.022l-0.441-0.158l-0.086,0.734l-0.381,0.154l-0.298,0.048l-0.315-0.048l-0.547-0.315l-0.519-0.035
		l-0.495,0.08l-0.346-0.267l-0.194-0.083l-0.15-0.067h-0.153h-0.45l-0.403,0.067l-0.398,0.05L134.933,99l-0.237-0.264l-0.493,0.083
		l-0.403,0.059l-0.604,0.609l-0.266,0.341l0.092,0.602l0.072,0.492l-0.26,0.34l-0.254,0.349l-0.609-0.016l-0.32-0.053l-0.421-0.14
		l-0.533-0.222l-0.665-0.208l-0.744-0.301l-0.569-0.407l-0.821,0.022l-0.737-0.197l-0.725-0.079l-0.378-0.366l-0.505-0.029
		l-0.345-0.256l-0.215-0.444l-0.114-0.26l-0.113-0.247l0.257-0.333l-0.144-0.91l-0.451-0.329l0.161-0.725l0.397-0.788l-0.582,0.101
		l-0.419,0.04l-0.487,0.083l-0.661,0.307l-0.629-0.008l-0.42-0.137l-0.141,0.324l-0.495,0.08l-0.437-0.042l-0.728-0.192
		l-0.584,0.192l-0.048,0.042l-0.25,0.236l-0.334,0.334l-0.886,0.123l-0.604-0.097l-0.419,0.157l-0.221,0.443l-0.456,0.364
		l-0.671,0.316l-0.158,0.326l-0.681,0.203l-0.499,0.183l-0.346,0.26l-0.904,0.146l-0.38,0.157l-0.404,0.062l-0.536-0.222
		l-0.429-0.146l-0.497,0.076l0.108,0.686l-0.108,0.624l-0.344,0.573l-0.325,0.459l-0.003,0.017l-0.343,0.342h-0.006l-0.534,0.377
		l-0.512,0.797l-0.02,1.133l0.112,0.79l0.072,0.508l0.092,0.599l-0.276,0.849l-0.752,1.033l-0.326,0.472l-0.444,0.467l-0.243,0.438
		l-0.478,0.182l-0.363,1.076l-0.623,1.204l-0.091,0.631l-0.399,0.77l-0.151,1.062l-0.652,1.015l0.125,0.776l0.291,0.678l0.046,0.114
		l0.098,0.274l0.072,0.191l0.03,1.022l0.123,0.678l0.365,0.475l0.129,0.885l-0.071,0.715l-0.088,0.844l-0.269,0.968l-0.178,0.835
		l0.378,0.455l0.215,0.765l0.28,0.478l0.369,0.341l0.361,0.472l0.405,0.541l0.541,0.221l0.236,0.267l0.6,0.539l0.479,0.538
		l0.289,0.665l0.281,0.358l0.416,0.658l0.141,0.158l0.086,0.111l0.164,0.146l0.425,0.374l1.038,0.771l0.77,0.378l0.787,0.491
		l0.528,0.119l0.543,0.124l0.396-0.052l1.612-0.746l0.579-0.314l0.601-0.08l0.775-0.133l0.508-0.072l0.883-0.229l0.679-0.214
		l0.549-0.287l0.61-0.078l0.609-0.718l0.462-0.362l1.424-0.422l0.034-0.013l0.27,0.086l0.16,0.046l0.761,0.395l0.172,0.48
		l0.137,0.791l0.659,0.319l0.976-0.247l0.547-0.293l0.512-0.076l0.919,0.666l0.283,0.479l-0.033,1.24l-0.007,0.392l-0.138,0.621
		l0.247,1.508l-0.375,0.976l0.963,0.968l1.093,1.066l1.14,1.458l0.202,0.767l0.499,0.549l0.614,0.709l0.191,1.213l0.164,0.454
		l0.102,0.263l0.116,0.33l0.152,1.007l0.177,0.58l0.105,0.68l0.126,1.024l-0.438,0.884l-0.042,0.494l-0.018,1.134l-0.091,0.838
		l-0.03,0.09l-0.093,0.303l-0.141,0.46l0.046,1.008l0.445,0.856l0.42,0.739l0.594,0.621l0.645,1.544l0.726,0.705l0.876,1.692
		l0.127,0.896l0.123,0.8l0.403,1.051l0.116,0.31l0.066,0.236l0.141,0.546l0.53,0.719l0.6,0.632l0.579,0.513l0.368,0.976l0.455,0.907
		l0.108,0.211l0.029,0.066l0.178,0.526l0.254,0.468l-0.016,1.126l0.121,0.797l0.261,0.367l0.651,0.205l0.898-0.045l0.059-0.007
		l0.372-0.113l0.349-0.099l1.601-0.237l0.44-0.479l1.094-0.171l0.398-0.054l1.024-0.567l0.534-0.48l0,0l0.145-0.242l0.105-0.198
		l0.336-0.453l0.236-0.469l0.356-0.35l0.242-0.435l0.337-0.474l0.24-0.447l0.089-0.725l0.335-0.461l0.229-0.545l0.357-0.356
		l0.243-0.442l-0.385-0.459l0.893-0.238l-0.185-1.198l-0.23-0.777l-0.376-0.454l0.376-0.258l0.426-0.473l0.576-0.29l0.474-0.165
		l0.258-0.356l-0.06-0.413l-0.194-2.593l-0.3-0.581l-0.137-0.278l-0.353-0.358l-0.175-0.483l0.02-0.501l0.361-0.263l0.139-0.527
		l0.265-0.856l0.335-0.455l1.027-0.569l0.956-0.57l0.305-0.65l0.438-1.091l0.152-1.037l-0.131-0.787l-0.094-0.636l-0.045-0.257
		l-0.054-0.416l-0.121-0.526l-0.064-0.253l-0.111-0.497l-0.151-0.995l-0.392-0.566l-0.474-0.422l-0.13-1.504l0.199-0.761
		l-0.448-0.326l-0.507-0.441l-0.081-0.704l0.409-1.269l-0.165-1.105l0.205-0.632l0.322-0.573l0.704-0.719l0.271-0.843l0.654-1.141
		l0.255-0.946l0.435-0.474l0.731-0.613l0.783-0.836l0.8-1.45l0.658-1.021l0.339-1.08v-0.701l0.257-1.07l0.382-1.474l0.429-1.191
		l0.076-0.823l0.182-0.841l-0.109-0.741l-0.023-0.156l-0.013-0.093l-0.125-0.698l-0.652,0.394l-0.562,0.285l-0.574,0.211
		l-0.297,0.146l-0.538,0.48l-0.173,0.235l-0.247,0.337l-0.862,0.053l-0.251,0.02l-0.494,0.072l-0.53-0.131l-0.938-0.771
		l-0.717-0.698l-0.07-0.494l-0.725-0.593l-0.322-0.363l-0.459-0.341l-0.46-0.343l-0.356-0.488l-0.546-0.177l-0.025-0.006
		l-0.27-0.146l-0.316-0.171l-0.263-0.763l-0.219-0.6l-0.023-0.06l-0.114-0.204l-0.238-0.421l-0.491-0.464l-0.485-0.616l-0.499-0.459
		l-0.256-0.911v-0.824l-0.178-0.386l-0.528-0.729l-0.775-0.562l-0.627-1.41l-0.346-0.471l-0.468-1.293l-0.348-0.512l-0.643-0.579
		l-0.093-0.672l-0.486-0.455l-0.07-0.553l-0.095-0.516l0.5,0.594l0.597,0.324l0.88,0.403l0.522,0.746l0.366,0.623l0.949,0.807
		l0.661,0.723l1.03,0.648l0.086,0.531l0.106,0.663l0.095,0.675l0.352,0.488l0.232,0.517l0.578,1.123l0.158,0.094l0.309,0.168
		l0.707,0.385l0.653,0.709l0.511,0.603l0.415,1.02l0.012,0.032l0.086,0.264l0.158,0.491l0.284,1.032l0.228,0.518l0.944,0.813
		l0.447,0.193l0.7,0.179l0.887-0.548l0.368-0.052l0.813-0.132l1.242-0.737l0.766-0.383l0.439-0.611l0.547-0.368l0.213-0.146v-0.081
		l0.005-0.744l1.006-0.574l0.323-0.448l0.154-0.204l0.198-0.26l0.063-0.067l0.517-0.574l1.03-0.427l0.31-0.579l0.264-0.989
		l0.331-0.459l0.533-1.034l-0.103-0.668l0.53-0.907l-0.372-0.764l-1.056-0.646l-0.577-0.183l-0.603-0.327l-0.363-0.625l-0.461-0.331
		l-0.112-0.665l-0.73,1.017l-0.047,0.064l-0.161,0.487l-0.029,0.088l-1.146,0.445l-0.52,0.218l-0.551-0.06l-0.392-0.752
		l-0.243-0.657l-0.416-0.055l-0.289,0.713l-0.5-0.594l-0.36-0.632l-0.589-1.143l-0.513-0.722l-0.514-0.614l-0.345-0.489l0.039-0.677
		l0.904-0.273l0.933-0.147l0.629,0.591l0.211,0.507l0.19,0.371l0.513,0.61l0.321,0.357l0.609,0.449l0.46,0.208l0.685,0.165
		l0.593-0.1l0.283-0.045l0.06-0.008l0.646-0.222l0.533-0.085l0.554,0.048l0.5,0.602l0.335,0.361l0.534-0.078l1.407,0.33l0.728,0.299
		l1.428-0.354l2.104-0.594l0.683,0.174l0.29,0.084l0.292,0.077l0.017,0.009l0.199,0.396l1.124,0.367l0.778,0.556l0.593,0.323
		l0.665-0.1l-0.771,1.209l-0.35,0.463l0.935,0.661l0.949,0.13l0.546-0.081l0.363-0.325l-0.146-0.933l0.084-0.419l0.438,0.221
		l0.263,0.759l0.124,0.922l0.008,0.963l0.332,1.182l0.537,1.29l0.092,0.211l0.014,0.034l0.625,1.527l0.731,1.113l0.158,1.063
		l0.035,0.135l0.238,0.784l0.037,0.033l0.934,0.916l0.894,1.355l0.273,1.048l0.777,0.566l0.599-0.504l0.303-0.716l0.5-0.343
		l0.178,0.363l0.171,1.066l0.419,0.882l0.273,0.924l0.697,0.161l0.468-0.481l-0.118-0.786l-0.241-0.666l-0.628-0.573l-0.351-0.484
		l-0.189-0.377l-0.501-0.606l-0.098-0.676l-0.103-0.654l-0.146-0.928l0.146-0.851l-0.183-1.2l-0.132-0.783l0.044-0.685l0.905-1.1
		l0.573-0.766l0.636-0.243l0.771-1.206l0.346-0.466l0.336-0.459l0.526-1.022l0.256-0.198l0.195-0.15
		c0.128,1.864,0.217,3.737,0.217,5.636C190.318,154.368,154.362,190.317,110.003,190.317z M139.249,88.757l-0.184,0.292
		l-0.237-0.033l-0.258-0.085l-0.179,0.11l-0.425,0.301l-0.271,0.029l0.177-0.324l0.619-0.339l0.1-0.105l0.144-0.125l0.104-0.342
		l-0.241-0.04l-0.283-0.04l-0.254-0.153l-0.207-0.306l-0.279-0.455l0.214-0.515l0.157-0.532l0.072-0.169l0.299-0.26l0.03-0.026
		l-0.053-0.254l-0.123-0.6l0.158-0.262l0.049-0.164l0.34-0.129l-0.109-0.503l-0.217-0.303l0.197-0.285l0.204-0.229l0.401-0.443
		l0.167-0.233l0.139-0.454l0.534-0.075l0.118-0.041l0.152,0.109l0.039,0.099l0.178,0.178l0.614,0.109l0.467-0.067l0.402-0.198
		l0.059,0.358l-0.171,0.141l-0.454,0.197l-0.119,0.251l-0.111,0.261l0.269,0.029h0.558l0.122,0.23l0.006,0.314l-0.086,0.202
		l0.172,0.128h0.325l0.386-0.271l0.488-0.237l0.282-0.144l0.158-0.072l0.182-0.106l0.299-0.043l0.129-0.295l0.637-0.212l0.144,0.167
		l0.131,0.311l0.29,0.115l0.254,0.115l0.444,0.29l0.172,0.117l0.204,0.175l0.263,0.246l0.309,0.222l0.24,0.073l0.59,0.204
		l0.455,0.078l0.229,0.207l0.219,0.269l0.087,0.112l0.049,0.151l0.005,0.017l0.019,0.148l-0.025,0.288l-0.153,0.453l-0.29,0.321
		l-0.164,0.138l-0.369,0.26l-0.229,0.07l-0.25-0.11l-0.138-0.107l-0.008-0.005l-0.154-0.085l-0.104,0.2l-0.005,0.007l-0.201,0.164
		l-0.937,0.092l-0.369-0.132l-0.218-0.087l-0.102-0.15h-0.319l-0.188,0.237l-0.246-0.246l-0.222-0.079l-0.24-0.044H144l-0.039-0.26
		l-0.478,0.031l-1.294,0.079l-0.205,0.298l-0.454,0.349l-0.178,0.183l-0.393,0.19l-0.102,0.215l-0.152,0.165l-0.679,0.229
		l-0.115-0.142l-0.418,0.034l-0.266,0.108L139.249,88.757z M145.177,81.347l0.31,0.198l0.131,0.128l-0.304,0.372l0.079,0.211
		l-0.386,0.104l-0.419,0.151l-0.412,0.101l-0.614,0.097l-0.242-0.097l-0.264-0.14l-0.042-0.236l-0.254-0.084l-0.205-0.091
		l-0.118-0.181l-0.284-0.144l0.804-0.094l0.237,0.015l0.283-0.206l0.225-0.358l0.367-0.165l0.648-0.189l0.162-0.217l0.322-0.202
		l0.152-0.094l0.21-0.122l0.036-0.006l0.287-0.086l0.303-0.048l0.225-0.016l0.04,0.214l-0.252,0.163l-0.184,0.309l-0.196,0.122
		l-0.133,0.086l-0.06,0.205l-0.013,0.003l-0.165,0.022l-0.315,0.085L145.177,81.347z"/>
</g>
<g>
	
		<circle fill="none" stroke="#FFFFFF" stroke-width="4" stroke-miterlimit="10" stroke-dasharray="10.0452,10.0452" cx="110" cy="110.001" r="105.513"/>
</g>
</svg>
